<svg xmlns="http://www.w3.org/2000/svg" viewBox="0 0 176.2 220.47"><defs><style>.cls-1{fill:#e2e2e2;}.cls-2{fill:#630100;}.cls-3{fill:#fff;}</style></defs><g id="Layer_2" data-name="Layer 2"><g id="Layer_1-2" data-name="Layer 1"><path class="cls-1" d="M11.77,102V20.25c0-6.37,2.7-9,9.11-9q58.73,0,117.45,0a37.28,37.28,0,0,1,37.16,30.26,37.7,37.7,0,0,1,.71,7.65q0,81.38,0,162.75c0,5.72-2.9,8.59-8.64,8.59q-58.85,0-117.69,0c-21.69,0-38.07-16.44-38.08-38.16Q11.75,142.14,11.77,102Z"/><path class="cls-1" d="M152.87,165a3.33,3.33,0,0,0-.21.52,8.43,8.43,0,0,1-8.34,6.75q-13.5.12-27,0a8.5,8.5,0,0,1-8.6-8.86q0-8.27,0-16.55a8.54,8.54,0,0,1,8.66-8.91c1,0,1.19-.32,1.2-1.25,0-2.82-.32-5.68.22-8.48A12.22,12.22,0,0,1,143,130.1c.08,2.3.05,4.6,0,6.9,0,.62.16.85.83.88,5,.28,7.52,2.33,8.89,7.1a.76.76,0,0,0,.12.19Zm-22-19.72H118c-1.55,0-1.9.35-1.9,1.88V163c0,1.6.34,1.93,2,1.93h25.51c1.62,0,2-.34,2-1.94V147.21c0-1.67-.32-2-2-2Zm-.1-7.41c1.34,0,2.68,0,4,0,.67,0,1-.14.93-.88-.05-2.19,0-4.37,0-6.55a4.87,4.87,0,0,0-9.74,0c0,2.18,0,4.36,0,6.55,0,.76.29.89,1,.87C128.13,137.8,129.43,137.82,130.74,137.82Z"/><path class="cls-1" d="M67.57,162.42H39.4c-2.88,0-4.29-1.42-4.29-4.3,0-5.45,0-10.89,0-16.33a23.27,23.27,0,0,1,23.46-23.52q21.27,0,42.54,0a23.31,23.31,0,0,1,11.55,2.95,3.68,3.68,0,1,1-3.45,6.48,17.53,17.53,0,0,0-8.6-2.08c-13.87,0-27.75,0-41.62,0-9.61,0-16.52,6.91-16.52,16.52v11.38c0,1.54,0,1.54,1.49,1.54H95.58a9.24,9.24,0,0,1,1.49.06,3.67,3.67,0,0,1-.41,7.29c-.38,0-.77,0-1.15,0Z"/><path class="cls-1" d="M79.22,108.42A24.52,24.52,0,1,1,103.81,84,24.56,24.56,0,0,1,79.22,108.42Zm0-7.36A17.16,17.16,0,1,0,62.08,83.87,17.17,17.17,0,0,0,79.26,101.06Z"/><path class="cls-2" d="M0,90.78Q0,49.92,0,9.05C0,2.69,2.7,0,9.11,0Q67.83,0,126.56,0a37.29,37.29,0,0,1,37.16,30.26,37.79,37.79,0,0,1,.71,7.66q0,81.38,0,162.75c0,5.71-2.89,8.59-8.64,8.59q-58.84,0-117.69,0C16.4,209.25,0,192.82,0,171.11Q0,130.94,0,90.78Z"/><path class="cls-3" d="M141.1,153.75c-.07.18-.16.35-.21.53a8.45,8.45,0,0,1-8.34,6.75q-13.5.1-27,0a8.51,8.51,0,0,1-8.6-8.86q0-8.28,0-16.55a8.55,8.55,0,0,1,8.66-8.92c1,0,1.19-.31,1.2-1.24,0-2.83-.32-5.68.22-8.49a12.22,12.22,0,0,1,24.21,1.94c.08,2.29.05,4.59,0,6.89,0,.63.16.85.83.89,5,.28,7.52,2.32,8.89,7.09a.76.76,0,0,0,.12.19Zm-22-19.72H106.2c-1.55,0-1.9.35-1.9,1.88v15.86c0,1.59.34,1.92,2,1.93h25.51c1.62,0,2-.35,2-1.94V136c0-1.66-.32-2-2-2Zm-.1-7.4c1.34,0,2.68,0,4,0,.67,0,1-.14.93-.88,0-2.18,0-4.37,0-6.55a4.87,4.87,0,0,0-9.74,0c-.05,2.18,0,4.37,0,6.55,0,.76.28.89.94.87C116.36,126.6,117.66,126.63,119,126.63Z"/><path class="cls-3" d="M55.8,151.22H27.64c-2.89,0-4.3-1.41-4.3-4.3,0-5.44,0-10.88,0-16.33A23.29,23.29,0,0,1,46.8,107.07c14.18,0,28.36,0,42.54,0a23.21,23.21,0,0,1,11.55,3,3.68,3.68,0,1,1-3.45,6.47,17.61,17.61,0,0,0-8.6-2.08c-13.87,0-27.75,0-41.62,0-9.61,0-16.52,6.9-16.52,16.51v11.38c0,1.54,0,1.54,1.49,1.54H83.81a9.2,9.2,0,0,1,1.49,0,3.67,3.67,0,0,1-.41,7.29c-.38,0-.77,0-1.15,0Z"/><path class="cls-3" d="M67.45,97.23a24.52,24.52,0,1,1,24.6-24.41A24.57,24.57,0,0,1,67.45,97.23Zm0-7.36A17.16,17.16,0,1,0,50.31,72.68,17.19,17.19,0,0,0,67.49,89.87Z"/></g></g></svg>