<svg xmlns="http://www.w3.org/2000/svg" viewBox="0 0 176.2 220.47"><defs><style>.cls-1{fill:#e2e2e2;}.cls-2{fill:#ff8500;}.cls-3{fill:#fff;}</style></defs><g id="Layer_2" data-name="Layer 2"><g id="Layer_1-2" data-name="Layer 1"><path class="cls-1" d="M176.19,211.87c0,5.72-2.9,8.59-8.64,8.59q-58.85,0-117.69,0c-21.69,0-38.07-16.44-38.08-38.16q0-40.16,0-80.32V20.25c0-6.37,2.7-9,9.11-9q58.73,0,117.45,0a37.28,37.28,0,0,1,37.16,30.26,37.7,37.7,0,0,1,.71,7.65Q176.19,130.5,176.19,211.87Z"/><path class="cls-1" d="M42.34,89.79a14.9,14.9,0,0,0,2.84.19h96c.73,0,1.47,0,2.19,0,2.58-.25,4.2-1.91,4.18-4.21a3.93,3.93,0,0,0-4.25-4c-2.15.06-2.4-.88-2.61-2.68-1.36-11.83-6.28-21.84-15.6-29.47a48,48,0,0,0-25.2-10.42c-1.17-.15-2.52.09-2.45-1.92.07-2.22,1.63-1.3,2.67-1.48a11.38,11.38,0,0,1,1.31,0c2.65-.09,4.45-1.78,4.45-4.15s-1.84-4.09-4.48-4.17c-1.9-.07-3.8,0-5.71,0-3.51,0-7-.05-10.54,0a4.24,4.24,0,0,0-4.44,4.2c0,2.36,1.82,4,4.47,4.12.88,0,1.76.05,2.64,0s1.35.39,1.28,1.31c-.06.74.3,1.71-.91,1.9-.65.1-1.31.17-2,.25-18.52,2.4-37,14.54-40.24,39-.31,2.33-.53,3.74-3.39,3.62-2.05-.09-3.45,1.73-3.57,3.75A4,4,0,0,0,42.34,89.79ZM54.28,78.55c2.41-15.09,11.08-25,25.55-29.35,16-4.77,30.77-2.19,43.11,9.74,5.68,5.5,8.39,12.56,9.46,20.32.25,1.81-.21,2.39-2.13,2.38-12.37-.09-24.75,0-37.13,0H56.67C53.83,81.59,53.79,81.58,54.28,78.55Z"/><path class="cls-1" d="M39.27,144.12c.51,0,1,0,1.54,0h105a7.78,7.78,0,0,0,3-.33,4,4,0,0,0,2.68-3.91,3.83,3.83,0,0,0-2.74-3.85,9.39,9.39,0,0,0-2.82-.25H51.72c-4.1,0-8.2,0-12.3,0A4.15,4.15,0,0,0,35,140,4.31,4.31,0,0,0,39.27,144.12Z"/><path class="cls-1" d="M145.56,162.89H41.21a16.91,16.91,0,0,0-2.85.14,4.09,4.09,0,0,0-.4,8,12.35,12.35,0,0,0,3,.28q52.29,0,104.57,0c4,0,6-1.44,6-4.22S149.58,162.89,145.56,162.89Z"/><path class="cls-2" d="M164.42,200.68c0,5.71-2.89,8.59-8.64,8.59q-58.84,0-117.69,0C16.4,209.25,0,192.82,0,171.11q0-40.17,0-80.33Q0,49.92,0,9.05C0,2.69,2.7,0,9.11,0Q67.83,0,126.56,0a37.29,37.29,0,0,1,37.16,30.26,37.79,37.79,0,0,1,.71,7.66Q164.41,119.31,164.42,200.68Z"/><path class="cls-3" d="M30.57,78.59a15,15,0,0,0,2.84.19q24.06,0,48.11,0h47.89c.73,0,1.47,0,2.19,0,2.58-.25,4.2-1.91,4.18-4.22a3.94,3.94,0,0,0-4.25-4c-2.15.07-2.4-.87-2.61-2.67C127.56,56,122.64,46,113.32,38.33a47.94,47.94,0,0,0-25.2-10.42C87,27.77,85.6,28,85.67,26c.07-2.23,1.63-1.3,2.67-1.49a9.52,9.52,0,0,1,1.31,0c2.65-.1,4.45-1.79,4.45-4.16s-1.84-4.08-4.47-4.17c-1.91-.06-3.81,0-5.72,0-3.51,0-7,0-10.54,0a4.23,4.23,0,0,0-4.44,4.19c0,2.37,1.82,4,4.47,4.13.88,0,1.76,0,2.64,0s1.35.38,1.28,1.3c-.06.75.3,1.71-.91,1.9-.65.11-1.31.17-2,.26-18.52,2.39-37,14.54-40.24,39-.31,2.33-.53,3.74-3.39,3.62-2.05-.09-3.45,1.74-3.57,3.76A4,4,0,0,0,30.57,78.59ZM42.51,67.35c2.41-15.09,11.08-25,25.56-29.35,16-4.77,30.77-2.19,43.1,9.75,5.68,5.49,8.39,12.56,9.46,20.32.25,1.81-.21,2.38-2.13,2.37-12.37-.08-24.75,0-37.13,0H44.9C42.06,70.4,42,70.38,42.51,67.35Z"/><path class="cls-3" d="M27.5,132.92c.51,0,1,0,1.54,0h105a7.85,7.85,0,0,0,3-.33,4,4,0,0,0,2.67-3.91,3.83,3.83,0,0,0-2.74-3.84,9.39,9.39,0,0,0-2.82-.26q-26.35,0-52.72,0-20.76,0-41.52,0c-4.1,0-8.21,0-12.31,0a4.15,4.15,0,0,0-4.42,4.16A4.31,4.31,0,0,0,27.5,132.92Z"/><path class="cls-3" d="M133.79,151.69H29.44a15.77,15.77,0,0,0-2.84.15,3.88,3.88,0,0,0-3.34,3.81,3.93,3.93,0,0,0,2.93,4.13,12.4,12.4,0,0,0,3,.29H133.8c3.95,0,6-1.45,6-4.23S137.81,151.7,133.79,151.69Z"/></g></g></svg>