<svg xmlns="http://www.w3.org/2000/svg" viewBox="0 0 431.28 431.28"><defs><style>.cls-1{fill:#ff8500;}.cls-2{fill:#fff;}</style></defs><g id="Layer_2" data-name="Layer 2"><g id="Layer_1-2" data-name="Layer 1"><circle class="cls-1" cx="215.64" cy="215.64" r="215.64"/><path class="cls-2" d="M357.18,218.4c-1.58,5.92-4.48,10.83-10.18,13.71a21.35,21.35,0,0,1-9.9,2q-85.94,0-171.89,0c-10,0-16.81-4.86-19.4-13.62a18.34,18.34,0,0,1,15.82-23.18c1.46-.13,2.94-.23,4.41-.23q85.11,0,170.24,0c6.93,0,12.85,1.85,17.22,7.54,1.9,2.47,2.66,5.41,3.68,8.25Z"/><path class="cls-2" d="M357.18,144.31c-1.52,5.83-4.37,10.67-9.91,13.61a21.15,21.15,0,0,1-10.13,2.19q-86,0-171.9,0c-10,0-16.84-4.88-19.42-13.61a18.35,18.35,0,0,1,16.05-23.24c1.28-.09,2.57-.16,3.86-.16q85.4,0,170.79,0c6.86,0,12.64,1.91,17,7.48,1.91,2.46,2.65,5.4,3.7,8.23Z"/><path class="cls-2" d="M357.18,292.49c-1.59,5.79-4.4,10.66-10,13.56a20.28,20.28,0,0,1-9.6,2.11h-173c-8.24,0-14.53-3.45-17.89-11-3.14-7.09-2-13.9,3.15-19.8,4-4.63,9.37-6.2,15.35-6.18,10.87,0,21.74,0,32.61,0q69.22,0,138.45,0c6.93,0,12.85,1.88,17.21,7.56,1.9,2.47,2.66,5.42,3.67,8.26Z"/><path class="cls-2" d="M123.28,141.47A24.59,24.59,0,1,1,98.51,117,24.78,24.78,0,0,1,123.28,141.47Z"/><path class="cls-2" d="M98.73,314.24a24.57,24.57,0,1,1,24.55-24.66A24.71,24.71,0,0,1,98.73,314.24Z"/><path class="cls-2" d="M98.44,240.19c-13.73-.33-24.65-11.49-24.34-24.86.31-13.63,11.66-24.62,25-24.21,13.77.42,24.61,11.62,24.19,25C122.84,229.67,111.66,240.52,98.44,240.19Z"/></g></g></svg>