<svg xmlns="http://www.w3.org/2000/svg" viewBox="0 0 176.2 220.47"><defs><style>.cls-1{fill:#e2e2e2;}.cls-2{fill:#630100;}.cls-3{fill:#fff;}</style></defs><g id="Layer_2" data-name="Layer 2"><g id="Layer_1-2" data-name="Layer 1"><path class="cls-1" d="M11.77,102V20.25c0-6.37,2.7-9,9.11-9q58.73,0,117.45,0a37.28,37.28,0,0,1,37.16,30.26,37.7,37.7,0,0,1,.71,7.65q0,81.38,0,162.75c0,5.72-2.9,8.59-8.64,8.59q-58.85,0-117.69,0c-21.69,0-38.07-16.44-38.08-38.16Q11.75,142.14,11.77,102Z"/><path class="cls-1" d="M93.94,105.08q18.54,0,37.09,0c4.36,0,6.88-1.6,6.94-4.31s-2.5-4.55-7-4.56H57.11c-4.53,0-7.12,1.67-7.11,4.48s2.57,4.38,7.15,4.39Q75.54,105.1,93.94,105.08Z"/><path class="cls-1" d="M93.94,135.46H131c4.36,0,6.88-1.6,6.94-4.31s-2.5-4.55-7-4.56q-36.94,0-73.87,0c-4.53,0-7.12,1.67-7.11,4.48s2.57,4.38,7.15,4.39Z"/><path class="cls-1" d="M93.94,165.84H131c4.36,0,6.88-1.6,6.94-4.31s-2.5-4.55-7-4.56H57.11c-4.53,0-7.12,1.67-7.11,4.48s2.57,4.38,7.15,4.39Z"/><path class="cls-1" d="M93.94,74.7q18.54,0,37.09,0c4.36,0,6.88-1.59,6.94-4.31s-2.5-4.54-7-4.55q-36.94,0-73.87,0c-4.53,0-7.12,1.67-7.11,4.48s2.57,4.38,7.15,4.39Z"/><path class="cls-2" d="M0,90.78Q0,49.92,0,9.05C0,2.69,2.7,0,9.11,0Q67.83,0,126.56,0a37.29,37.29,0,0,1,37.16,30.26,37.79,37.79,0,0,1,.71,7.66q0,81.38,0,162.75c0,5.71-2.89,8.59-8.64,8.59q-58.84,0-117.69,0C16.4,209.25,0,192.82,0,171.11Q0,130.94,0,90.78Z"/><path class="cls-3" d="M82.17,93.88q18.54,0,37.09,0c4.36,0,6.88-1.6,6.94-4.31s-2.5-4.55-7-4.55q-36.93,0-73.87,0c-4.53,0-7.12,1.67-7.11,4.47s2.57,4.39,7.15,4.39Q63.79,93.9,82.17,93.88Z"/><path class="cls-3" d="M82.17,124.27h37.09c4.36,0,6.88-1.6,6.94-4.31s-2.5-4.55-7-4.55q-36.93,0-73.87,0c-4.53,0-7.12,1.67-7.11,4.47s2.57,4.39,7.15,4.39Z"/><path class="cls-3" d="M82.17,154.65q18.54,0,37.09,0c4.36,0,6.88-1.59,6.94-4.31s-2.5-4.55-7-4.55q-36.93,0-73.87,0c-4.53,0-7.12,1.67-7.11,4.47s2.57,4.39,7.15,4.39Z"/><path class="cls-3" d="M82.17,63.5h37.09c4.36,0,6.88-1.6,6.94-4.31s-2.5-4.55-7-4.55q-36.93,0-73.87,0c-4.53,0-7.12,1.67-7.11,4.47s2.57,4.39,7.15,4.39Z"/></g></g></svg>