<svg xmlns="http://www.w3.org/2000/svg" viewBox="0 0 431.28 431.28"><defs><style>.cls-1{fill:#ff8500;}.cls-2{fill:#fff;}.cls-3{fill:#630100;}</style></defs><g id="Layer_2" data-name="Layer 2"><g id="Layer_1-2" data-name="Layer 1"><circle class="cls-1" cx="215.64" cy="215.64" r="215.64"/><path class="cls-2" d="M188.89,351.79c-30.59,0-61.19,0-91.79.06-2.58,0-3.13-.7-3.13-3.19q.12-72.35,0-144.68c0-2.66.66-3.34,3.24-2.61a15.8,15.8,0,0,1,7,4.1c1.59,1.56,3.09,3.22,4.73,4.72a13.52,13.52,0,0,0,19-.08c1.63-1.51,3.12-3.18,4.72-4.73,6.14-5.93,14.19-5.88,20.3.12,1.59,1.56,3.08,3.23,4.73,4.73a13.48,13.48,0,0,0,18.72,0c1.72-1.57,3.27-3.32,5-4.94,6-5.82,14-5.8,20.07,0,1.46,1.41,2.82,2.92,4.28,4.32,6,5.77,13.87,5.81,19.85.11,1.61-1.54,3.09-3.22,4.71-4.74,5.78-5.43,13.61-5.44,19.41,0,1.56,1.45,3,3.05,4.5,4.53,6.11,5.94,13.84,6,20.07.2,2.36-2.21,4.33-4.85,7.11-6.6.58-.36,1.38-.88,1.89-.73,1,.31.49,1.39.49,2.11q.06,23.86,0,47.72c0,31.92-.06,63.84.08,95.75,0,3.3-1,3.88-4,3.87C249.48,351.75,219.19,351.79,188.89,351.79Z"/><path class="cls-2" d="M337.23,276.71c0,23.91-.06,47.82.08,71.73,0,2.89-.87,3.44-3.53,3.41-12.57-.14-25.13-.11-37.69,0-2.13,0-2.7-.55-2.7-2.69q.09-72.19.06-144.38c0-.78-.11-2,.32-2.25.85-.6,1.63.38,2.36.85,2.33,1.5,4.05,3.66,6,5.58,6.95,6.87,14.7,6.83,21.6-.09,3.06-3.07,5.82-6.49,10.41-7.52,2.3-.52,3.17-.3,3.16,2.41C337.19,228.07,337.23,252.39,337.23,276.71Z"/><path class="cls-2" d="M152.41,193.13c-12-4-21.6-1-29.51,8.21-3.52,4.09-5.37,4-9.18-.06a33.09,33.09,0,0,0-8.61-7.12,3.49,3.49,0,0,1-1.78-2.63c-5.68-24.31-9.77-48.83-9.19-73.9.2-8.81,1-17.59,4.11-26,4.92-13.47,13.91-16,25-6.77,8.22,6.84,13.9,15.74,19.21,24.86a250.25,250.25,0,0,1,15.52,32.56,3.75,3.75,0,0,1-.11,3.42,52.64,52.64,0,0,0-5.42,24.64C152.48,177.86,152.41,185.35,152.41,193.13Zm-20.2-80.47c-.33-2.46-1.33-4.23-3.76-4.75a4.56,4.56,0,0,0-5.65,2.94c-1.08,2.72-1.91,5.54-2.85,8.32q-4.17,12.36-8.35,24.72a4.71,4.71,0,0,0,1.58,5.69,4.52,4.52,0,0,0,5.4.29,6,6,0,0,0,2.48-3.68q5.23-15.51,10.51-31C131.86,114.3,132,113.4,132.21,112.66ZM127.46,188c2.68-.21,4.09-1.82,4.89-4.26,2.29-6.89,4.64-13.77,7-20.65,1.29-3.82,2.69-7.61,3.86-11.48a4.85,4.85,0,0,0-3.09-6.36,4.65,4.65,0,0,0-5.9,2.93c-3.88,11.14-7.7,22.32-11.38,33.54A4.79,4.79,0,0,0,127.46,188Z"/><path class="cls-2" d="M224.43,196.9a62.67,62.67,0,0,1,5.34-29.52c4.22-9.54,10.12-17.79,19.51-22.92,10.66-5.82,20.61-3.75,28.39,5.69a8.5,8.5,0,0,0,.83.79c.75-2.15,1.36-4.22,2.19-6.19,4.75-11.27,13.91-17.23,25.61-16.69a17.72,17.72,0,0,1,3,.39c2.91.66,4.53,2.78,4.19,5.39s-2.47,4.3-5.44,4.11a23.52,23.52,0,0,0-6.65.08c-6.9,1.5-12.32,7.93-12.93,15.5,3.66-1.36,7.32-2.41,11.2-2.13,7.74.58,13.29,4.66,17.11,11.1,6.24,10.56,7.12,22.06,4.67,33.76-.73,3.51-4.21,5.79-7.3,7.69a3.24,3.24,0,0,1-3.92-.78c-1.21-1.22-2.43-2.43-3.57-3.72a24,24,0,0,0-36-.12c-5.58,6.33-7.18,6.49-12.91,0a23.66,23.66,0,0,0-31.4-3.7Z"/><path class="cls-3" d="M162.14,181.59c.28-6.31-.77-13.87.83-21.26,3.23-14.92,11.94-25.43,26-31.33,1.81-.77,2.45-1.6,2.35-3.51-.15-3.24,0-6.49-.06-9.72-.05-1.59.22-2.36,2.1-2.34,8.4.1,16.81.07,25.22,0,1.44,0,1.95.44,1.91,1.9-.09,3,.17,6.09-.08,9.11-.22,2.61.54,3.93,3.11,4.87a38.08,38.08,0,0,1,13.1,8.63c1.29,1.23,1.73,2,.07,3.5-17.56,16.32-23.83,36.75-21.56,60.21.07.75.78,1.72,0,2.23s-1.71-.31-2.35-.92c-1.16-1.12-2.27-2.3-3.35-3.51a24.13,24.13,0,0,0-36.24.05c-.87,1-1.77,1.95-2.66,2.92-1.43,1.56-3.25,2.4-5.16,1.38s-3.38-2.31-3.28-5C162.29,193.5,162.14,188.12,162.14,181.59Z"/><path class="cls-3" d="M205.9,103.74c-5.57,0-11.14-.13-16.7.06-2.36.09-2.91-.69-2.79-2.89.19-3.23.12-6.48,0-9.71-.05-1.58.43-2.09,2-2.08q17.46.09,34.91,0c1.66,0,2.06.58,2,2.11-.1,3.44-.12,6.88,0,10.32.06,1.71-.45,2.26-2.2,2.23C217.43,103.68,211.67,103.74,205.9,103.74Z"/></g></g></svg>