<svg xmlns="http://www.w3.org/2000/svg" viewBox="0 0 176.2 220.47"><defs><style>.cls-1{fill:#e2e2e2;}.cls-2{fill:#ff8500;}.cls-3{fill:#fff;}</style></defs><g id="Layer_2" data-name="Layer 2"><g id="Layer_1-2" data-name="Layer 1"><path class="cls-1" d="M176.19,211.87c0,5.72-2.9,8.59-8.64,8.59q-58.85,0-117.69,0c-21.69,0-38.07-16.44-38.08-38.16q0-40.16,0-80.32V20.25c0-6.37,2.7-9,9.11-9q58.73,0,117.45,0a37.28,37.28,0,0,1,37.16,30.26,37.7,37.7,0,0,1,.71,7.65Q176.19,130.5,176.19,211.87Z"/><path class="cls-1" d="M93.73,145.43c-14.21,0-28.43-.1-42.64.07a7.26,7.26,0,0,1-7.32-7.29A49.87,49.87,0,0,1,80.92,89.92c1.39-.36,2.77-.73,4.18-1a1.78,1.78,0,0,0,1.69-2,36.46,36.46,0,0,1,0-4.31c.1-1.18-.29-1.6-1.47-1.87a7.1,7.1,0,0,1-4.61-10.59,6.41,6.41,0,0,1,5.65-3.37c5.22-.07,10.44-.06,15.65,0,2.89,0,5.64,2.75,6.22,6a7.28,7.28,0,0,1-4.47,7.72c-.79.32-2,.14-2.34.84a7.24,7.24,0,0,0-.17,2.82c0,.57,0,1.15,0,1.72,0,2.92,0,2.94,2.92,3.53a50.27,50.27,0,0,1,39.53,42.74c.24,2,.18,3.91.29,5.87.25,4.51-3.3,7.57-7.65,7.52C122.16,145.34,108,145.43,93.73,145.43Zm33.94-13.11c0-.43-.07-.86-.14-1.29a36.51,36.51,0,0,0-12.67-22.51,31.52,31.52,0,0,0-7-4.72,2.63,2.63,0,0,0-3.47,1.08,2.57,2.57,0,0,0,1,3.49c.27.18.58.32.87.49a31.94,31.94,0,0,1,15.15,18.88,39.39,39.39,0,0,1,1.06,5,2.66,2.66,0,0,0,2.93,2.36A2.57,2.57,0,0,0,127.67,132.32Z"/><path class="cls-1" d="M94.25,164.92q-25.12,0-50.26,0a7,7,0,0,1-6.9-9.64,6.45,6.45,0,0,1,6.54-4.41q13.27-.06,26.56-.08l73.37,0c4.08,0,7.38,2.6,7.75,6.2a7.15,7.15,0,0,1-6.95,8C127.66,164.84,111,164.92,94.25,164.92Z"/><path class="cls-2" d="M164.42,200.68c0,5.71-2.89,8.59-8.64,8.59q-58.84,0-117.69,0C16.4,209.25,0,192.82,0,171.11q0-40.17,0-80.33Q0,49.92,0,9.05C0,2.69,2.7,0,9.11,0Q67.83,0,126.56,0a37.29,37.29,0,0,1,37.16,30.26,37.79,37.79,0,0,1,.71,7.66Q164.41,119.31,164.42,200.68Z"/><path class="cls-3" d="M82,134.24c-14.21,0-28.43-.11-42.64.06A7.26,7.26,0,0,1,32,127,49.85,49.85,0,0,1,69.15,78.73c1.39-.37,2.77-.73,4.18-1A1.79,1.79,0,0,0,75,75.66a38.55,38.55,0,0,1,0-4.3c.1-1.18-.29-1.61-1.47-1.88A7.09,7.09,0,0,1,69,58.89a6.44,6.44,0,0,1,5.65-3.37c5.22-.07,10.44-.05,15.65,0,2.89,0,5.64,2.76,6.22,6A7.29,7.29,0,0,1,92,69.26c-.8.31-2,.13-2.35.83a7.26,7.26,0,0,0-.17,2.82c0,.58,0,1.15,0,1.72,0,2.92,0,3,2.92,3.54A50.27,50.27,0,0,1,132,120.9c.24,2,.19,3.92.29,5.87.25,4.51-3.3,7.57-7.64,7.53C110.39,134.15,96.18,134.24,82,134.24Zm33.94-13.12c-.05-.43-.07-.86-.14-1.28a36.54,36.54,0,0,0-12.67-22.52,31.59,31.59,0,0,0-7-4.71,2.61,2.61,0,0,0-3.47,1.07,2.57,2.57,0,0,0,1,3.49c.27.18.58.32.87.49a32,32,0,0,1,15.16,18.88,41.14,41.14,0,0,1,1,5,2.65,2.65,0,0,0,2.93,2.36A2.57,2.57,0,0,0,115.9,121.12Z"/><path class="cls-3" d="M82.48,153.73q-25.12,0-50.26,0a7,7,0,0,1-6.9-9.64,6.44,6.44,0,0,1,6.54-4.4q13.28-.06,26.56-.09l73.37,0c4.08,0,7.38,2.59,7.75,6.2a7.15,7.15,0,0,1-6.95,8C115.89,153.64,99.18,153.73,82.48,153.73Z"/></g></g></svg>