<svg xmlns="http://www.w3.org/2000/svg" viewBox="0 0 337.97 370.95"><defs><style>.cls-1{fill:#f5f5f5;}.cls-2{fill:#a4afc0;}.cls-3{fill:#a4aec0;}.cls-4{fill:#f9f9f9;}.cls-5{fill:#f2f2f0;}.cls-6{fill:#ff8500;}.cls-7{fill:#d4dae0;}.cls-8{fill:#ff952c;}</style></defs><g id="Layer_2" data-name="Layer 2"><g id="Layer_1-2" data-name="Layer 1"><path class="cls-1" d="M324.92,73.79c2.78,7.18,5.41,14.41,6.88,22a127.19,127.19,0,0,1,2.79,22.82c.14,12.8.36,25.61-1.49,38.34a301.29,301.29,0,0,1-16.68,64.74,301.77,301.77,0,0,1-33.83,64.6,236.71,236.71,0,0,1-33.83,39.12,178.7,178.7,0,0,1-43,29.86,146.78,146.78,0,0,1-47.57,14.23c-6.65.75-13.31,1.64-20,1.42A134.94,134.94,0,0,1,90.47,360.4c-18.77-7.8-34.35-19.95-47.77-34.94C32.58,314.16,25.15,301.05,19,287.23A195.55,195.55,0,0,1,6.67,247.85c-1.93-9.34-3.27-18.76-4.32-28.24A220.46,220.46,0,0,1,.92,191.36a52.28,52.28,0,0,1,0-13.46,280,280,0,0,1,1.61-38.31c2.4-24,6.85-47.63,16-70.08,7.07-17.33,16.73-33,30.7-45.79,13.19-12,28.64-19.19,46.22-22.53C114-2.34,131.11,2.53,148.09,8.73c21.71,7.91,43.17,16.61,65.65,22.14a244.05,244.05,0,0,0,39.89,6.54c10.71.82,21.56-.28,32.19,2.55,13.68,3.66,24.62,10.83,32.35,22.77-.2,2.28,1,3.81,2.51,5.39S324.82,70.94,324.92,73.79Z"/><path class="cls-2" d="M321.34,36.25c-2-2.06-4.58-4.12-6.29-6.76-1.14-1.77,1.49-2.79,2.58-3.95,3-3.18,6.16-6.13,9.16-9.27,1.74-1.83,3.16-1.82,5-.08,5.52,5.16,5.58,5.11.27,10.42-2.73,2.72-5.43,5.45-8.18,8.15A3.28,3.28,0,0,1,321.34,36.25Z"/><path class="cls-2" d="M295.49,29.45c-2.29,2.25-4.26,4.75-6.77,6.45-1.66,1.12-2.58-1.35-3.64-2.35-3.52-3.32-6.83-6.85-10.32-10.2-1.37-1.31-1.54-2.24-.1-3.63,7-6.83,4.85-6.28,11.13-.24,2.76,2.67,5.45,5.42,8.16,8.16C294.46,28.15,294.89,28.74,295.49,29.45Z"/><path class="cls-3" d="M324.92,73.79c-2.21-2.29-4.27-4.74-6.66-6.83-1.82-1.59-1.42-2.8-.09-4.23a3.34,3.34,0,0,0,.64-.37c5.22-4.65,5.22-4.65,10.3.43,2.54,2.54,5,5.14,7.63,7.59,1.43,1.34,1.77,2.23.2,3.87-5.32,5.6-5.25,5.67-10.84.42A10.33,10.33,0,0,0,324.92,73.79Z"/><path class="cls-4" d="M.92,177.9v13.46A25,25,0,0,1,.92,177.9Z"/><path d="M82.57,196.87V112.72c0-9.31.7-10.27,9.48-13.49,36.28-13.3,72.64-26.37,108.76-40.07,11.48-4.35,21.11,3.37,20.26,14.16-.62,7.93,0,16-.17,23.93,0,2.19.41,2.89,2.8,3C241.31,101.09,253,113.36,253,131q.06,75.54,0,151.1c0,18.45-12.51,31-31,31q-54.23.08-108.45,0c-18.42,0-30.95-12.6-31-31Q82.52,239.51,82.57,196.87Z"/><path class="cls-5" d="M114.63,116.45c1-.08,2-.22,3-.22q52,0,104,0c4.11,0,7.94.6,11.07,3.54a13.18,13.18,0,0,1,4.26,10q0,64,0,127.93a8.06,8.06,0,0,1-.4,1.77c-1.29.72-2.69.36-4,.36q-55.36,0-110.72,0c-8.37,0-8.37,0-8.37-8.6V181.64q0-29.37,0-58.73C113.39,120.69,113.06,118.37,114.63,116.45Z"/><path class="cls-6" d="M114.66,276c13.83,0,27.66-.11,41.49-.13,25.67,0,51.35,0,77-.06,2.84,0,4.2.6,3.73,3.65a25.09,25.09,0,0,0,0,3.36c-.15,9-5.29,14.17-14.2,14.2q-23,.08-46,0-28.77,0-57.56-.15c-2.31-1.1-3.43-3.19-4.15-5.43C113.32,286.36,112.53,281.2,114.66,276Z"/><path class="cls-7" d="M114.63,116.45q0,69.2-.06,138.4c0,3.53.81,4.61,4.48,4.6,39.15-.11,78.29,0,117.44,0-.91,1-2.11.49-3.16.49-43.64,0-87.28-.05-130.92,0-3.23,0-3.84-1-3.84-4q.15-67.89,0-135.79c0-3.39.91-4.31,4.15-4C106.65,116.49,110.65,116.37,114.63,116.45Z"/><path class="cls-6" d="M137.64,99.45l67.43-24.82c0,8.23,0,16,0,23.81,0,2.56-2,1.69-3.31,1.69-13.57.06-27.15,0-40.72,0H137.88Z"/><path class="cls-8" d="M114.66,276c-.21,7.32-.59,14.68,4.46,20.88-2.73,0-5.46.19-8.18.06A12.78,12.78,0,0,1,98.78,285.1c-.73-9.22-.73-9.23,8.45-9.21C109.7,275.89,112.18,276,114.66,276Z"/><path d="M159.12,142.83c28.77-.14,54.46,28.78,50.62,57-2.41,17.73-18.44,29.94-36.68,28a54,54,0,0,1-47.48-46.44C122.76,160.13,137.73,142.94,159.12,142.83Z"/><path class="cls-6" d="M163.28,159.32c14.4,2,28.15,15.35,30.32,29.89-5.2-5.72-11.1-9.69-18.49-11-3.06-.52-6.16-.77-9.24-1.09s-6.13-1-8.55-3.2C155.84,169.54,158.86,162.13,163.28,159.32Z"/><path class="cls-8" d="M176,211.62c-15.17.39-31.45-13.77-34.15-30.23A35.27,35.27,0,0,0,161,192.86a10.37,10.37,0,0,1,2.2,2.47c2.79,5.32,6.83,9.62,11.18,13.68C175.14,209.7,176.43,210.17,176,211.62Z"/><path class="cls-6" d="M176,211.62c-6.17-5.32-11.82-11.05-15-18.76a58.54,58.54,0,0,1,12.53,1.48c6,1.6,10.43,7.2,11.23,13.51.23,1.9-.41,2.68-2.17,3.16A16.64,16.64,0,0,1,176,211.62Z"/><path class="cls-8" d="M163.28,159.32a25.48,25.48,0,0,0-6,14.65c-4-2.66-5.79-6.59-6.58-11.15-.28-1.64.23-2.5,1.88-3A24.16,24.16,0,0,1,163.28,159.32Z"/></g></g></svg>