<svg xmlns="http://www.w3.org/2000/svg" viewBox="0 0 334 370.67"><defs><style>.cls-1{fill:#eee;}.cls-2{fill:#630100;}.cls-3{fill:#d4dae0;}.cls-4{fill:#f2f2f0;}.cls-5{fill:#ff8500;}.cls-6{fill:#ff952c;}</style></defs><g id="Layer_2" data-name="Layer 2"><g id="Layer_1-2" data-name="Layer 1"><path class="cls-1" d="M320.47,79.86c2.09,8.16,4.36,16.28,6.23,24.48a322.36,322.36,0,0,1,5.12,31.85c2.47,19.8,2.23,39.67,2.12,59.54a269.47,269.47,0,0,1-3.52,39.17,216.39,216.39,0,0,1-13.56,49.37,150.3,150.3,0,0,1-23.79,39.8,129,129,0,0,1-57.9,39.77,125.91,125.91,0,0,1-32.33,6.48c-25,1.81-48.48-3.51-71.06-13.94a166.41,166.41,0,0,1-34.14-21.07c-8.33-6.65-16.43-13.68-23.32-21.92,1.92-1.68,4.26-1.13,6.45-1.13q66.77-.06,133.55,0c16.21,0,32.43.08,48.64,0,10.55-.07,19.55-3.55,25.78-12.58a30,30,0,0,0,5.11-17.33q.18-54.06,0-108.11a31,31,0,0,0-6.64-19.86c-1.85-2.31-2-4.49-.12-6.74,5.56-6.76,6.91-14.7,6.84-23.15-.11-11.72.1-23.44-.07-35.16-.15-10.55-3.7-19.55-12.84-25.64-5.83-3.88-12.42-5-19.27-5H127.46c-18.71,0-37.41-.07-56.12,0-10.53.06-19.57,3.46-25.82,12.5-3.68,5.33-5.1,11.37-5.17,17.7q-.23,19.44,0,38.9c.07,6.87,1.78,13.28,6.08,18.89,2.92,3.81,2.87,4.49.08,8.21-4.63,6.18-6.2,13.23-6.2,20.76q0,41.52,0,83c0,2.06.48,4.28-1.14,6.07-5.55-8-9.44-17-13.48-25.76A278.26,278.26,0,0,1,7.53,186.6,275.65,275.65,0,0,1,.85,147.1a203.55,203.55,0,0,1-.42-31.7C1.79,95.8,5.86,76.79,18.14,60.59,28.15,47.4,41.36,40.3,57.9,38.65c9.18-.92,18.36-.09,27.52-1.28,14.52-1.89,28.9-4.29,43-8.26,22.28-6.27,43.63-15.21,65.48-22.74,10-3.44,20.2-6.59,30.81-6.36,20.64.46,39.56,6.46,55.94,19.51C293.13,29.46,302.39,42,310,55.83c.47.86,1.08,1.63,1.63,2.45.19,2.23-1.7,3.16-2.95,4.38-1.71,1.66-1.73,3,0,4.6,3.12,3,6.12,6.07,9.15,9.13C318.84,77.43,320,78.37,320.47,79.86Z"/><path class="cls-2" d="M39.14,264.75c.07-5.73.18-11.45.19-17.18q0-36.47,0-72.93c0-8.41,2-16,7.88-22.27,1.1-1.16,1.09-1.87,0-3-6-6.36-8-14.1-7.89-22.65.13-12.59,0-25.18,0-37.78,0-18.71,12.46-31.2,31.14-31.21q96.69,0,193.37,0c18.49,0,30.94,12.49,31,31,.06,13,0,25.93,0,38.9,0,8.15-2.09,15.51-7.71,21.59-1.15,1.25-1.32,2-.06,3.34,5.76,6.16,7.79,13.65,7.77,21.94q-.06,53.48,0,107c0,19.48-12.27,31.8-31.69,31.8H78.78c-1.48,0-3,.12-4.46.19-4.19-.38-8.44-.05-12.58-1.11-13.37-3.42-22.1-14.64-22.39-28.91C39.22,277.17,39.21,271,39.14,264.75Z"/><path class="cls-3" d="M325.34,21.09a2.7,2.7,0,0,1-1.21,2.4c-3.86,3.89-7.79,7.7-11.58,11.65-1.4,1.47-2.25,1.22-3.62-.07-5.87-5.49-5.92-5.45-.2-11.16,2.55-2.55,5.18-5,7.62-7.69,1.48-1.6,2.52-1.46,3.93.06C322,18.1,323.86,19.71,325.34,21.09Z"/><path class="cls-3" d="M320.47,79.86c-5-4-9.16-9-13.87-13.41-1.24-1.15-.94-2,.13-3.07,1.67-1.65,3.24-3.4,4.86-5.1,1.08-.77,1.76-.11,2.5.63,3.91,4,7.81,7.92,11.81,11.78,1.4,1.35,1.42,2.29,0,3.61C324,76.05,322.27,78,320.47,79.86Z"/><path class="cls-3" d="M269.37,14.37c.61.54,1.08.93,1.52,1.36,3.87,3.87,7.69,7.78,11.62,11.58,1.46,1.42,1.55,2.45.12,4-5.27,5.85-5.22,5.9-10.73.39-2.81-2.81-5.58-5.67-8.46-8.42-1.29-1.22-1.33-2.15,0-3.35,1.57-1.41,3-3,4.51-4.45A16.25,16.25,0,0,1,269.37,14.37Z"/><path class="cls-4" d="M75.07,159.3c1.37-.07,2.73-.19,4.1-.19H265c8.33,0,13.71,5.05,13.77,13.3.11,14.95-.07,29.9.12,44.85,0,3-1.5,2.73-3.42,2.72h-200c-1.37,0-2.73-.09-4.1-.15-1.31-1.43-1.16-3.23-1.16-5,0-14.09-.06-28.18,0-42.26C70.21,167.6,71.26,162.92,75.07,159.3Z"/><path class="cls-4" d="M71.31,236.24c1.24-.07,2.48-.21,3.71-.21q99.84,0,199.67-.1c3.55,0,4.21,1,4.17,4.32-.17,14.2,0,28.41-.09,42.62,0,8.93-5.26,14.22-14.15,14.22q-93.48,0-186.95,0c-.62,0-1.24-.11-1.86-.17-4.81-3.11-5.52-8.1-5.59-13.12-.18-13.57-.08-27.14,0-40.72C70.18,240.77,69.69,238.32,71.31,236.24Z"/><path class="cls-5" d="M75.8,73.94c11,0,21.92-.13,32.89-.15,16.57,0,33.14,0,49.72-.05,2.4,0,3.5.34,3.48,3.17-.12,20.93-.08,41.87,0,62.8,0,2-.07,3.16-2.69,3.15-27.78-.14-55.57-.14-83.35-.18-4.71-3-5.42-7.88-5.53-12.72-.26-11.18-.08-22.38-.08-33.57,0-3.6-.24-7.23.1-10.81C70.72,81.09,71.47,76.63,75.8,73.94Z"/><path class="cls-5" d="M223.47,142.8c-14.09,0-28.17-.07-42.25.06-2.67,0-3.63-.48-3.61-3.43q.21-31,0-62.06c0-3.08,1-3.65,3.81-3.64,27.54.09,55.09,0,82.63.06,9.64,0,14.69,5.1,14.71,14.78q0,19.82,0,39.63c0,9.44-5.19,14.59-14.54,14.59Z"/><path class="cls-6" d="M75.8,73.94a23.71,23.71,0,0,0-4.53,14.61c.17,13.42.11,26.84,0,40.26a22.69,22.69,0,0,0,4.51,13.87c-2.61,0-5.23.17-7.84.09-6.59-.22-12.32-5.55-12.4-12.08q-.27-22.41,0-44.81c.08-6.49,5.52-11.68,12-12C70.32,73.74,73.07,73.91,75.8,73.94Z"/><path class="cls-3" d="M75.07,159.3c-4.3,7.22-3.84,15.2-3.77,23.15.1,12.45,0,24.9,0,37.35-4.59.06-9.19.06-13.78.19-1.58,0-2.16-.42-2.16-2.08.08-15.66-.07-31.32.17-47,.11-6.7,5.76-11.74,12.45-11.83C70.37,159.07,72.72,159.23,75.07,159.3Z"/><path class="cls-3" d="M71.31,236.24c0,15.38.12,30.75,0,46.13a23.64,23.64,0,0,0,4.54,14.56c-.36.06-.73.14-1.1.17-14.12,1.15-20-4.56-19.41-18.73.57-13,.2-26.09.06-39.13,0-2.63.7-3.44,3.31-3.27C62.87,236.24,67.1,236.17,71.31,236.24Z"/><path class="cls-2" d="M241.59,196a10.56,10.56,0,1,1,10.67-10.64A10.65,10.65,0,0,1,241.59,196Z"/><path class="cls-2" d="M241.56,260A10.59,10.59,0,1,1,231,270.72,10.69,10.69,0,0,1,241.56,260Z"/><path class="cls-2" d="M225.6,121.64a10.08,10.08,0,0,1-5.11-1.91c-7.39-5.3-14.78-10.6-22.23-15.82-1.71-1.2-2.41-2.09-.79-4,2.68-3.25,4.5-8.72,7.72-9.63,3.38-1,6.83,4.08,10.34,6.36,2.81,1.83,5.53,3.82,8.19,5.88,1.42,1.1,2.46,1,3.9,0,5.31-3.91,10.79-7.61,16.07-11.57,1.78-1.34,2.81-1.49,4.1.53a91.35,91.35,0,0,0,6.09,8.51c1.54,1.89,1,2.73-.81,4-7.36,5.11-14.63,10.38-21.91,15.62A10.83,10.83,0,0,1,225.6,121.64Z"/></g></g></svg>