<svg xmlns="http://www.w3.org/2000/svg" viewBox="0 0 337.68 370.5"><defs><style>.cls-1{fill:#eee;}.cls-2{fill:#d4dae0;}.cls-3{fill:#630100;}.cls-4{fill:#ff952c;}.cls-5{fill:#ff8500;}</style></defs><g id="Layer_2" data-name="Layer 2"><g id="Layer_1-2" data-name="Layer 1"><path class="cls-1" d="M12.78,178.51c2.56-12.35,7-24.13,11.7-35.72A300.17,300.17,0,0,1,55.06,85.68,236.92,236.92,0,0,1,90.52,44.53C103.23,33,117.17,22.91,132.74,15.46A158.71,158.71,0,0,1,181,1.09,129.55,129.55,0,0,1,301.69,53C317.1,73.72,326,97.26,331.54,122.26c2.25,10.16,3.42,20.47,4.65,30.81,2.05,17.26,1.46,34.55,1.26,51.82a307.27,307.27,0,0,1-4.9,49.86,234.49,234.49,0,0,1-12.93,46.91c-7.25,18-17.5,34.14-32.17,47-13,11.36-28.25,18-45.42,20.91-16,2.68-31-.6-45.89-5.7-25.49-8.72-50.27-19.6-76.74-25.37a288,288,0,0,0-33.74-5.13c-11.34-1.08-22.87.33-34-2.84-15.38-4.35-26.75-13.58-34.6-27.45C9.47,289.7,5.88,275.27,4.54,260.16A215.9,215.9,0,0,1,5.14,217c.93-8.27,2.62-16.37,4-24.54.32-1.88.33-2.62-1.91-2.72-7.28-.32-7.3-.42-7.18-7.7,0-1.18-.48-2.54.8-3.45,1.41,1.72,1.06,3.79,1,5.74,0,2.46.89,3.68,3.5,3.62,3.85-.09,7.71-.11,11.57,0,3.07.09,3.71-1.54,3.73-4.2s-.76-4.27-3.79-4.12C15.48,179.73,13.9,179.83,12.78,178.51Z"/><path class="cls-2" d="M12.78,178.51c1.37,0,2.74.09,4.11.1,4.87,0,4.91,0,4.87,4.76-.05,6.57.78,5.7-5.76,5.75-4.11,0-8.23-.12-12.33,0-2.34.08-3.1-.83-2.95-3.06.16-2.48.11-5,.16-7.46Z"/><path class="cls-3" d="M69,145.6c-.09-.09-.15-.22-.26-.27-7.06-3.27-7.06-3.27-3.71-10.34a117.07,117.07,0,0,1,221.49,33c9.64,62.54-33.53,122.07-96.2,132.66A116.54,116.54,0,0,1,63.75,233c-2.08-4.68-2.08-4.66,2.61-6.61.91-.37,1.76-.87,2.63-1.31,1.5-2,3.83-2.24,6-2.78,2.44-.61,3.2,1.3,4,3.07a95.45,95.45,0,0,0,12.91,21.8,97.73,97.73,0,0,0,53,34.86c33.1,8.23,63.2,1.81,89.58-19.62,19.83-16.1,31.78-37.31,35.33-62.7,4.06-29-3.18-55.31-21.84-77.9-17-20.53-39-32.6-65.62-35.8a98.05,98.05,0,0,0-37.4,2.69c-14.44,3.53-27.13,10.47-38.53,19.86a96.41,96.41,0,0,0-27.54,37.16c-1.1,2.59-2.7,3.41-5.28,2.36C71.9,147.4,70.06,147.23,69,145.6Z"/><path class="cls-3" d="M61.9,193.57c-2.83-.06-5.67-.21-8.5-.17-1.59,0-2.54-.18-2.47-2.15.13-3.94.13-7.9,0-11.85-.07-2,.88-2.17,2.47-2.15,2.83,0,5.66-.1,8.5-.17,1.49-1.13,3.23-1.17,5-1.17,6.1,0,12.19-.07,18.28.05,25.56.3,51.12,0,76.68.12,7.11,0,14.21,0,21.76,0l-21.36-21.36c-1-1-2-1.92-2.9-2.91-3-3.17-3-3.92,0-7.1,1.73-1.8,3.5-3.56,5.29-5.29,3.35-3.22,4.31-3.23,7.72.13,6.47,6.39,12.88,12.86,19.32,19.29,6.08,6.09,12.21,12.13,18.24,18.27,5.8,5.91,5.81,10.54,0,16.43q-18.58,18.72-37.29,37.3c-3.7,3.68-4.55,3.66-8.25,0-1.79-1.74-3.58-3.48-5.28-5.3-2.65-2.84-2.7-3.73.07-6.56,7-7.12,14.1-14.12,21.13-21.18a24.15,24.15,0,0,0,2.58-2.68c-.1-.74-.67-.61-1.11-.61-32.17.06-64.34-.14-96.52.1-6.11.14-12.22,0-18.33.06C65.14,194.75,63.39,194.71,61.9,193.57Z"/><path class="cls-4" d="M86.11,177.11l-24.21,0A103.34,103.34,0,0,1,69,145.6c2.71.13,5.31,3.31,7.57,1.8,1.85-1.25,2.32-4.52,3.5-6.84q19.55-38.65,60.81-51.85a36.57,36.57,0,0,1,3.63-.78c-.12,2.53-2.46,2.89-4,3.81a105.34,105.34,0,0,0-21.39,16.13c-11.14,11.21-20,24-25.53,39a110.76,110.76,0,0,0-6.5,27.49A3.9,3.9,0,0,1,86.11,177.11Z"/><path class="cls-4" d="M61.9,193.57l24.21,0c1.6,2.29,1.19,5,1.58,7.55a107.49,107.49,0,0,0,26.4,56.23,109.28,109.28,0,0,0,27.46,22.07c1.29.75,3.1,1.22,2.95,3.33-12.77-2.75-24.06-8.71-34.44-16.41A97.53,97.53,0,0,1,78.23,226c-1.31-3-2.5-3.85-5.37-2.25A21.44,21.44,0,0,1,69,225,104.39,104.39,0,0,1,61.9,193.57Z"/><path class="cls-2" d="M45.71,154.89a32.79,32.79,0,0,1,0,4.09c-.25,2,1.17,5-.89,5.79-2.52.93-5.62.38-8.46.24-1.36-.06-1.12-1.43-1.12-2.38,0-5.34,0-10.68,0-16,0-1.69.57-2.35,2.34-2.49,8.21-.68,8.2-.74,8.2,7.42Z"/><path class="cls-2" d="M45.71,216v3.36c0,7.74-.51,8.12-8.46,7.15-1.64-.2-2.07-.92-2.07-2.38,0-5.46,0-10.93,0-16.39,0-1.22.19-2.26,1.75-2.26H44c1.6,0,1.68,1.15,1.68,2.33Z"/><path class="cls-5" d="M144.5,282.72c-3.72-3.34-8.37-5.26-12.42-8.12a107.57,107.57,0,0,1-39.81-51.72c-3.5-9.45-6-19.17-6.16-29.34q22.44-.07,44.89-.14,25.25,0,50.5,0c1.19,0,2.37.1,4.46.19-4.73,4.67-8.88,8.74-13,12.83-4.69,4.66-9.29,9.41-14.06,14-1.54,1.48-1.54,2.34,0,3.76,2.76,2.52,5.37,5.21,7.94,7.92,1.14,1.2,1.88,1.14,3,0,13.63-13.7,27.35-27.31,40.94-41.06,3.45-3.49,3.45-7.89,0-11.38-13.59-13.75-27.31-27.36-40.94-41.06-1.14-1.15-1.89-1.19-3,0-3.08,3.26-6.26,6.42-9.41,9.62,2.32,3.57,5.71,6.14,8.64,9.14,6.33,6.47,12.79,12.82,19.14,19.17-.63,1-1.3.75-1.87.75H88c-.62,0-1.24-.09-1.86-.14.85-17.64,6.44-33.79,15.56-48.78,10.17-16.72,24.11-29.51,41.13-39a13,13,0,0,0,1.7-1.36c23-6.52,45.42-4.54,67.11,5,38.82,17.15,62.44,56.24,60,98.71-2.77,48.34-41.38,88.92-89.44,94C169.44,287.05,156.84,286.59,144.5,282.72Z"/></g></g></svg>