<svg xmlns="http://www.w3.org/2000/svg" viewBox="0 0 334.33 373.11"><defs><style>.cls-1{fill:#f2f2f0;}.cls-2{fill:#a3aec0;}.cls-3{fill:#d4dae0;}.cls-4{fill:#fdfdfd;}.cls-5{fill:#ff8500;}.cls-6{fill:#ff952c;}</style></defs><g id="Layer_2" data-name="Layer 2"><g id="Layer_1-2" data-name="Layer 1"><path class="cls-1" d="M334.14,240.56c.75,19.33-2.41,37.35-11.07,54-11.39,21.87-28.65,37.26-52.48,44.61-7.11,2.2-14.51,3.1-21.94,3.7-11.23.91-22.44,2.08-33.69,2.82-6.06.41-12.09,1-18.14,1.58a284.86,284.86,0,0,0-38.09,6.28c-15.47,3.52-30,9.6-44.68,15.44-13.9,5.53-28.08,5.6-42.07-.47-16.64-7.23-28.23-20-37.8-34.75C18.81,310,10.61,283.47,5.19,256c-2.05-10.44-3-21.07-4.14-31.66C.24,216.9.31,209.43.08,202a208.16,208.16,0,0,1,1-26c.76-8.14,1.81-16.22,3-24.32a224,224,0,0,1,6.36-29c5.83-20.6,14.27-40.1,26.3-57.85C52.84,41.06,73.63,22.53,100,10.72A120.38,120.38,0,0,1,136.84.85C155-1,172.84.1,190.25,5.52a141.13,141.13,0,0,1,44.63,23.6,192.32,192.32,0,0,1,20.48,19.05C267.23,60.49,277.1,74.34,285.81,89c15.74,26.55,27.71,54.8,37.07,84.17a250.06,250.06,0,0,1,10.5,47.13A110.67,110.67,0,0,1,334.14,240.56Z"/><path class="cls-2" d="M316,55.46a16.38,16.38,0,0,1-16.1-15.86c-.11-8.52,7.2-16,15.84-16.14,8.31-.18,16.09,7.48,16.17,15.91S324.47,55.39,316,55.46Z"/><path d="M159.1,282.24q-50.11,0-100.23,0c-11.26,0-19.19-7.67-19.24-18.91-.12-27-.05-54.11,0-81.16A20.52,20.52,0,0,1,40.4,177q14-51.84,28.16-103.65c2.57-9.45,9.24-14.65,19.07-14.66q47.88-.06,95.74,0c9.37,0,15.7,4.74,18.65,13.73,7.48,22.79,14.86,45.61,22.44,68.36.88,2.66.48,3.76-2.18,4.46a61.74,61.74,0,0,0-8.84,2.9c-2.76,1.19-3.47.05-4.25-2.37-5.68-17.75-11.5-35.46-17.29-53.18-1.62-5-3.34-9.88-4.9-14.87-.58-1.89-1.43-3-3.61-3q-42.81.15-85.62.2c-2.21,1.59-4.77,1.17-7.23,1.23-4.61.1-5,.37-6.34,5.14-5,18.14-9.79,36.32-14.78,54.46-3.73,13.57-7.3,27.18-11.06,40.75a33.79,33.79,0,0,0-1.28,9.21q0,36.63,0,73.25c0,6.06.22,6,6.32,6.34,30.85,1.8,61.72.37,92.58.75,2.75,0,3.81.66,3.53,3.53C159.13,273.81,160,278.06,159.1,282.24Z"/><path d="M224.91,175.91c4.82,0,7.3,1.94,9,6.51,4.26,11.54,8.57,23.06,12.64,34.66.89,2.52,2.15,3.4,4.71,3.51,11.33.52,22.65,1.27,34,1.8,4.15.19,7.72,1.16,9.3,5.44s-.48,7.35-3.69,10.06c-9.14,7.72-18.13,15.61-27.33,23.25-2,1.62-2.32,3.05-1.71,5.38,3.13,11.9,6.1,23.84,9.14,35.77,1.29,5.09.51,8.18-2.63,10.41s-6.26,2-10.67-1c-9.78-6.64-19.59-13.25-29.29-20-1.85-1.29-3-1.28-4.88,0-9.7,6.75-19.52,13.34-29.3,20-4.45,3-7.39,3.28-10.66,1-3.09-2.13-3.94-5.33-2.68-10.36,3-12.18,6-24.37,9.27-36.51a3.64,3.64,0,0,0-1.43-4.41c-9.24-7.78-18.41-15.65-27.62-23.48-3.93-3.35-5.14-6.44-3.89-10s4.22-5.23,9.28-5.5c11.57-.6,23.14-1.35,34.71-1.89,2.23-.11,3.17-.94,3.91-3,4.27-11.94,8.73-23.79,13.07-35.7C219.45,178.13,221.87,176.05,224.91,175.91Z"/><path d="M135.59,80.12c6.85,0,13.7,0,20.55,0,12.15.08,21.49,8.86,21.76,20.43.29,12-8.32,21.63-20.59,22q-21.84.63-43.71,0A21.06,21.06,0,0,1,92.87,101c.29-11.88,9.55-20.76,21.8-20.85C121.65,80.08,128.62,80.12,135.59,80.12Z"/><path class="cls-3" d="M159.1,282.24c.06-4.36,0-8.72.22-13.07.15-2.45-.8-2.83-3-2.81-12.7.09-25.42.05-38.13,0l-57.57,0c-4.64,0-4.94-.3-4.94-4.81,0-25.68,0-51.35,0-77,0-4.47,1.61-8.54,2.73-12.71,8.33-31,16.81-61.9,25.13-92.87.8-3,2-4.54,5.3-4.2,3,.3,6,.17,9,.23q-5.59,20.48-11.19,40.94c-5.81,21.31-11.57,42.64-17.42,64a16.52,16.52,0,0,0-.56,4.41q0,38.13,0,76.27c0,5,.15,5.18,5.32,5.18,27.17,0,54.33.06,81.5-.08,3.6,0,5,1,4.53,4.58C159.41,274.2,160.92,278.34,159.1,282.24Z"/><path class="cls-4" d="M321.08,39.54a5.72,5.72,0,0,1-5.21,5.35c-2.6,0-5.55-3-5.43-5.61a5.67,5.67,0,0,1,5.48-5.06A5.44,5.44,0,0,1,321.08,39.54Z"/><path class="cls-5" d="M232.42,225.36c1.83,9.16,8.14,11.41,16.5,11.18,5.57-.15,11.15.51,17.66.85-2.72,2.39-4.87,4.31-7.05,6.19-3.86,3.33-7.66,6.74-11.64,9.92-3.48,2.78-4.27,6.18-3.21,10.3,2,7.67,3.91,15.35,6.08,23.89-5.64-3.83-10.79-6.84-15.37-10.56-6-4.84-11.66-6.32-17.9-.82-1.82-.52-1-1.9-.81-2.9.48-2.57,1.17-5.1,1.9-7.61,1.47-5,1.39-4.93-2.73-8.45-6.62-5.67-13.31-11.24-19.79-17.06-.82-.73-2.13-1.41-1.78-2.62.39-1.38,2-.27,2.94-.91a79.25,79.25,0,0,1,9.59-.59c5.92.31,9.61-2.27,11.47-7.76a3.76,3.76,0,0,1,3.06-1.1A22,22,0,0,0,232.42,225.36Z"/><path class="cls-6" d="M197.22,236.76l-2.63,1.07c7.51,6.42,14.8,12.87,22.36,19,3.06,2.48,4.37,4.75,2.85,8.76-1.27,3.38-2.6,6.92-2.31,10.72L200.93,287.9c2.15-8.43,3.89-16,6-23.5,1.4-4.85.11-8.38-3.7-11.5-5.93-4.86-11.69-9.92-18.15-15.43Z"/><path class="cls-6" d="M232.42,225.36a5.76,5.76,0,0,1-6.07,3c-2.67-.23-5.38,0-8.07,0,2.41-6.87,4.81-13.74,7.59-21.68C228.33,213.71,230.38,219.54,232.42,225.36Z"/><path class="cls-5" d="M123.24,96.12c11.06,0,22.13-.14,33.2-.09a5.34,5.34,0,0,1,5.59,5.3c0,2.91-2.29,5.19-5.64,5.2-11.06,0-22.13-.06-33.2-.11A7.64,7.64,0,0,1,123.24,96.12Z"/><path class="cls-6" d="M123.24,96.12a15.49,15.49,0,0,0,0,10.3c-3,0-6,.16-8.93.1-3.22-.07-5.12-1.76-5.31-5-.18-3,2-5.31,5.35-5.46C117.27,95.9,120.26,96.08,123.24,96.12Z"/></g></g></svg>