<svg xmlns="http://www.w3.org/2000/svg" viewBox="0 0 119.13 117.37"><defs><style>.cls-1{fill:#fff;}.cls-2{fill:#630100;}</style></defs><g id="Layer_2" data-name="Layer 2"><g id="Layer_1-2" data-name="Layer 1"><path class="cls-1" d="M82.17,117.37H0V42.94a37,37,0,0,1,73.92,0v.51h8.25a37,37,0,0,1,0,73.92ZM10,107.37H82.17a27,27,0,0,0,0-53.92H63.92V42.94a27,27,0,0,0-53.92,0Z"/><path class="cls-2" d="M53.58,46.6h-24a8.64,8.64,0,0,1-3.45-.69A9,9,0,0,1,23.31,44a8.86,8.86,0,0,1-1.9-2.83,8.64,8.64,0,0,1-.69-3.45V9a8.68,8.68,0,0,1,.69-3.45,9.09,9.09,0,0,1,1.9-2.83A9,9,0,0,1,26.14.82,8.64,8.64,0,0,1,29.59.13h24a11.37,11.37,0,0,1,4.41,1,12,12,0,0,1,3.58,2.5A11.68,11.68,0,0,1,64,7.29a11.43,11.43,0,0,1,.89,4.47A11.07,11.07,0,0,1,64,16.23a12,12,0,0,1-2.5,3.68,11.87,11.87,0,0,1-3.68,2.5,11.27,11.27,0,0,1-4.54.92,11.27,11.27,0,0,1,4.54.92A11.78,11.78,0,0,1,64,30.46a11.36,11.36,0,0,1,.92,4.5A11.18,11.18,0,0,1,64,39.4a11.77,11.77,0,0,1-2.43,3.65A12.43,12.43,0,0,1,58,45.58,11.22,11.22,0,0,1,53.58,46.6Z"/><path class="cls-2" d="M91,6.31l2.7-2.76a11.69,11.69,0,0,1,4-2.66,12.49,12.49,0,0,1,9.26,0,12,12,0,0,1,6.71,6.7,12.51,12.51,0,0,1,0,9.27,11.69,11.69,0,0,1-2.66,4l-22,22a12.25,12.25,0,0,1-4,2.66,12.1,12.1,0,0,1-4.77,1,11.77,11.77,0,0,1-4.76-1A12.46,12.46,0,0,1,69.06,39a12,12,0,0,1-1-4.77v-22a12,12,0,0,1,1-4.76A12.43,12.43,0,0,1,75.57,1a12.39,12.39,0,0,1,11,.76A11.44,11.44,0,0,1,91,6.31Z"/><path class="cls-2" d="M56.21,79.71V90.29a11.9,11.9,0,0,1-1,4.76,12.45,12.45,0,0,1-2.63,3.88,12.19,12.19,0,0,1-3.91,2.63,12,12,0,0,1-4.8,1,11.81,11.81,0,0,1-4.77-1,12.46,12.46,0,0,1-6.5-6.51,11.74,11.74,0,0,1-1-4.76V79.71a12.69,12.69,0,0,1-4.3-1.29,11.52,11.52,0,0,1-3.48-2.66A12.56,12.56,0,0,1,21.57,72a11.81,11.81,0,0,1-.85-4.47,12.2,12.2,0,0,1,1-4.8,12.35,12.35,0,0,1,6.51-6.54,11.76,11.76,0,0,1,4.76-1h22a12,12,0,0,1,4.79,1,12.18,12.18,0,0,1,6.54,6.54,12,12,0,0,1,1,4.8A11.82,11.82,0,0,1,66.33,72,12.53,12.53,0,0,1,64,75.76a11.77,11.77,0,0,1-3.48,2.66A12.75,12.75,0,0,1,56.21,79.71Z"/><path class="cls-2" d="M113.72,69.78,103,83.91h3.88a8.71,8.71,0,0,1,3.45.69,9,9,0,0,1,2.82,1.91,8.8,8.8,0,0,1,1.91,2.86,8.89,8.89,0,0,1,.69,3.48,8.64,8.64,0,0,1-.69,3.45,8.89,8.89,0,0,1-1.91,2.83,9.13,9.13,0,0,1-2.82,1.91,8.7,8.7,0,0,1-3.45.68H92.56A23.27,23.27,0,0,1,83.65,100,24,24,0,0,1,71,87.36,23.08,23.08,0,0,1,76.13,62a23.67,23.67,0,0,1,7.69-5.13,27.94,27.94,0,0,1,5.29-1.45,50.17,50.17,0,0,1,6.73-.75,48.09,48.09,0,0,1,7.1.19,25.78,25.78,0,0,1,6.41,1.45,11.94,11.94,0,0,1,4.63,3,6.74,6.74,0,0,1,1.78,4.8A8.52,8.52,0,0,1,113.72,69.78Z"/></g></g></svg>