<svg xmlns="http://www.w3.org/2000/svg" viewBox="0 0 370.72 333.99"><defs><style>.cls-1{fill:#eee;}.cls-2{fill:#a3aec0;}.cls-3{fill:#f2f2f0;}.cls-4{fill:#ff8500;}.cls-5{fill:#d4dae0;}.cls-6{fill:#ff952c;}.cls-7{fill:#ededee;}</style></defs><g id="Layer_2" data-name="Layer 2"><g id="Layer_1-2" data-name="Layer 1"><path class="cls-1" d="M58.44,260.4a99,99,0,0,1-14.16-13.75,194.37,194.37,0,0,1-22.74-30.8A154.09,154.09,0,0,1,2.13,162.62a127.17,127.17,0,0,1-2.1-24,131.34,131.34,0,0,1,20-67c4.87-7.82,10.19-15.29,17.15-21.45,1.21,1.19.44,2.6.38,3.89A15,15,0,0,0,52.44,70.18a14.86,14.86,0,0,0,14.85-15,15,15,0,0,0-15.64-15c-1.09,0-2.24.51-3.11-.57A142.84,142.84,0,0,1,81.78,19.28,205.48,205.48,0,0,1,127.93,5,322.78,322.78,0,0,1,161.8.71C176-.4,190.19.1,204.37.19c13.87.09,27.67,1.65,41.44,3.5a237.82,237.82,0,0,1,46.67,10.75C313,21.6,331.84,31.78,346.8,48c12.37,13.44,19.76,29.19,22.89,47.24,2.78,16-.39,31-5.54,45.91-8.83,25.58-19.65,50.51-25.48,77.08A271.51,271.51,0,0,0,333.52,252c-1,10.62.22,21.38-2.29,31.88-3.94,16.39-13.46,28.43-28.06,36.75-11.42,6.51-23.77,9.69-36.62,11.76-12.52,2-25.1,1.75-37.61,1.21-13.46-.58-26.8-2.95-40-6a310.43,310.43,0,0,1-77.2-29.22,288.35,288.35,0,0,1-35.45-22.68A18.86,18.86,0,0,1,74,273.32c1.85-1.87,4.23-1.16,6.38-1.16q90.92-.06,181.82,0,15.53,0,31.05,0c10.67,0,17.39-5.77,18.86-16.31a48.14,48.14,0,0,0,.05-12.69c-1.18-9.22-6.66-14.81-15.8-16.46-5.54-1-5.69-1.09-5.64-6.67.11-12.11.21-24.19-3.09-36-11.21-40.18-37.09-65.64-77.16-76.82-5.71-1.59-6-1.84-4.72-7.74.82-3.78,1.7-7.55,2.27-11.37,1.43-9.61-2.2-17.19-10-22.62a22.35,22.35,0,0,0-25.37.2c-7.77,5.55-11.19,13.19-9.6,22.77.67,4,1.57,8.07,2.44,12.1,1,4.46.46,5.35-3.82,6.36a104.14,104.14,0,0,0-50.17,27.63C94.4,151.44,84.26,172.07,81,196c-1.09,8.09-.57,16.18-.73,24.28-.1,5.19-.23,5.4-5.23,6.27-10.33,1.8-16.22,8.56-16.44,19.07A57.44,57.44,0,0,0,59,257.22,3.48,3.48,0,0,1,58.44,260.4Z"/><path d="M58.44,260.4c-1-5.3-.8-10.68-.67-16C58,233.69,65.34,226,76,225.51c2.68-.13,3.23-.94,3.17-3.44-.34-14.23-.31-28.46,4.11-42.2q18.93-58.76,78.78-74.1c2.6-.66,3.49-1.22,2.66-4.07-1.21-4.17-1.87-8.5-2.7-12.78a23.74,23.74,0,0,1,10.19-24.36,24.05,24.05,0,0,1,26.42-.07A23.73,23.73,0,0,1,209,88.8c-.86,4.52-1.7,9-2.84,13.51-.52,2-.23,2.74,1.92,3.28q66.12,16.78,81.79,83.23c2.55,10.77,2.07,21.79,2,32.76,0,2.52.1,3.85,3.41,4,9.74.38,16.85,7.17,17.81,16.85a71.59,71.59,0,0,1,0,13.81c-1,10.35-8.63,17-19.16,17q-56.66.06-113.32,0L74,273.32C66.42,271.89,61.38,267.42,58.44,260.4Z"/><path class="cls-2" d="M48.54,39.64c8.72-1,14.56,1.63,17.93,8.12a16.24,16.24,0,0,1-2.78,18.92c-4.54,4.59-12.75,5.85-18.37,2.82A15.82,15.82,0,0,1,37,51.65c.11-.49.16-1,.24-1.47C39.19,44.74,43.13,41.4,48.54,39.64Z"/><path class="cls-3" d="M163.77,122c17.1-4.78,34-3.74,50.68,1.88A90.51,90.51,0,0,1,276,208.54c.07,4.86-.06,9.72.06,14.58.05,1.81-.54,2.51-2.32,2.28a16.65,16.65,0,0,0-1.87,0H114.41c-1.24,0-2.49-.1-3.73-.16-1-1-1-2.24-1-3.49-.12-13.86.46-27.65,4.58-41a101,101,0,0,1,20.37-36.62,106.47,106.47,0,0,1,20.53-17.79C157.86,124.43,160.9,123.39,163.77,122Z"/><path class="cls-4" d="M89.73,241.7c1.36-.07,2.72-.21,4.09-.21H291.2c5.94,0,6,0,6,6.09-.06,10.92,1.27,9.84-9.73,9.84H94.91c-1.49,0-3-.07-4.48-.11-.55-.29-1.19-.61-1.28-1.23C88.46,251.25,87.65,246.41,89.73,241.7Z"/><path class="cls-5" d="M163.77,122c-5.65,3.78-11.55,7.18-16.83,11.51a97.75,97.75,0,0,0-35.73,71.66c-.32,6.7-.26,13.39-.53,20.08-4.48.06-9,.09-13.44.19-1.44,0-2.21-.2-2.28-2-.79-20.83,1.3-41,12.38-59.41q19.09-31.67,54.59-41.85A10.26,10.26,0,0,1,163.77,122Z"/><path class="cls-6" d="M185.44,103c-3.64,1.22-4.54-.85-5-3.84-.73-4.4-1.75-8.76-2.63-13.15A7.4,7.4,0,0,1,181,78a7.32,7.32,0,0,1,9.05.09,7.55,7.55,0,0,1,3.18,8.16c-.89,4.25-1.86,8.49-2.64,12.77C190.08,102,189.25,104.39,185.44,103Z"/><path class="cls-6" d="M89.73,241.7c.37,5.2-.84,10.46.7,15.6-4.23,0-8.46.05-12.69.13-2.58.05-4-.95-3.9-3.72.09-3,0-6,0-9,0-2.18,1-3.22,3.18-3.2C81.27,241.58,85.5,241.65,89.73,241.7Z"/><path class="cls-7" d="M57.59,55.24a5.63,5.63,0,0,1-5.13,5.37C49.7,60.68,47,57.88,47.11,55s2.24-4.85,5.45-4.85S57.63,52,57.59,55.24Z"/></g></g></svg>