<svg xmlns="http://www.w3.org/2000/svg" viewBox="0 0 466.83 117.37"><defs><style>.cls-1{fill:#fff;}.cls-2{fill:#ff8500;}</style></defs><g id="Layer_2" data-name="Layer 2"><g id="Layer_1-2" data-name="Layer 1"><path class="cls-1" d="M429.87,117.37H347.7V42.94a37,37,0,1,1,73.92,0v.51h8.25a37,37,0,0,1,0,73.92Zm-72.17-10h72.17a27,27,0,0,0,0-53.92H411.62V42.94a27,27,0,1,0-53.92,0Z"/><path class="cls-2" d="M401.28,46.6h-24a8.64,8.64,0,0,1-3.45-.69,8.92,8.92,0,0,1-4.73-4.73,8.72,8.72,0,0,1-.69-3.46V9a8.71,8.71,0,0,1,.69-3.45A9.09,9.09,0,0,1,371,2.72a9.15,9.15,0,0,1,2.83-1.9,8.64,8.64,0,0,1,3.45-.69h24a11.11,11.11,0,0,1,4.4,1,11.68,11.68,0,0,1,3.59,2.49,11.85,11.85,0,0,1,2.43,3.68,11.46,11.46,0,0,1,.88,4.47,11.06,11.06,0,0,1-.91,4.47,12,12,0,0,1-2.5,3.68,11.87,11.87,0,0,1-3.68,2.5,11.3,11.3,0,0,1-4.54.92,11.3,11.3,0,0,1,4.54.92,11.78,11.78,0,0,1,6.18,6.21,11.35,11.35,0,0,1,.91,4.5,11.17,11.17,0,0,1-.88,4.44,12,12,0,0,1-2.43,3.65,12.34,12.34,0,0,1-3.59,2.53A11.14,11.14,0,0,1,401.28,46.6Z"/><path class="cls-2" d="M438.68,6.31l2.69-2.76A11.73,11.73,0,0,1,445.42.89a12.49,12.49,0,0,1,9.26,0,12,12,0,0,1,6.71,6.7,12.65,12.65,0,0,1,0,9.27,11.72,11.72,0,0,1-2.67,4l-22,22A12.39,12.39,0,0,1,428,46.47a11.74,11.74,0,0,1-4.76-1,12.46,12.46,0,0,1-6.51-6.5,12,12,0,0,1-.95-4.77v-22a12,12,0,0,1,.95-4.76A12.43,12.43,0,0,1,423.27,1,11.9,11.9,0,0,1,428,0a12,12,0,0,1,6.28,1.71A11.51,11.51,0,0,1,438.68,6.31Z"/><path class="cls-2" d="M403.91,79.71V90.29a11.9,11.9,0,0,1-1,4.76,12.62,12.62,0,0,1-2.63,3.88,12.19,12.19,0,0,1-3.91,2.63,12,12,0,0,1-4.8,1,11.81,11.81,0,0,1-4.77-1A12.12,12.12,0,0,1,383,98.93a12.28,12.28,0,0,1-2.63-3.88,11.74,11.74,0,0,1-1-4.76V79.71a12.61,12.61,0,0,1-4.3-1.28,11.89,11.89,0,0,1-3.49-2.67A12.74,12.74,0,0,1,369.27,72a11.77,11.77,0,0,1-.85-4.47,12,12,0,0,1,.95-4.8A12.19,12.19,0,0,1,372,58.84a12.45,12.45,0,0,1,3.88-2.63,11.9,11.9,0,0,1,4.76-1h21.95a12.24,12.24,0,0,1,11.34,7.49,12,12,0,0,1,1,4.8A11.78,11.78,0,0,1,414,72a12.74,12.74,0,0,1-2.33,3.74,11.89,11.89,0,0,1-3.49,2.67A12.61,12.61,0,0,1,403.91,79.71Z"/><path class="cls-2" d="M461.42,69.78,450.71,83.91h3.87a8.72,8.72,0,0,1,3.46.69,9,9,0,0,1,2.82,1.91,8.8,8.8,0,0,1,1.91,2.86,8.89,8.89,0,0,1,.69,3.48,8.64,8.64,0,0,1-.69,3.45A9,9,0,0,1,458,101a8.72,8.72,0,0,1-3.46.69H440.26a23.05,23.05,0,0,1-8.91-1.75,23.94,23.94,0,0,1-12.62-12.62A23.13,23.13,0,0,1,423.82,62a23.78,23.78,0,0,1,7.69-5.13,28.28,28.28,0,0,1,5.3-1.45,50.17,50.17,0,0,1,6.73-.75,48.13,48.13,0,0,1,7.1.2,25.35,25.35,0,0,1,6.41,1.44,11.94,11.94,0,0,1,4.63,3,6.74,6.74,0,0,1,1.78,4.8A8.52,8.52,0,0,1,461.42,69.78Z"/><path class="cls-1" d="M31.57,61h-23a8.32,8.32,0,0,1-3.31-.66A8.54,8.54,0,0,1,.66,55.78,8.32,8.32,0,0,1,0,52.47V24.88a8.41,8.41,0,0,1,.66-3.32A8.57,8.57,0,0,1,5.21,17a8.32,8.32,0,0,1,3.31-.66H31.57a10.89,10.89,0,0,1,4.23.94,11.18,11.18,0,0,1,5.77,5.94,10.85,10.85,0,0,1,.86,4.29,10.57,10.57,0,0,1-.89,4.29,11.37,11.37,0,0,1-5.93,5.94,10.75,10.75,0,0,1-4.36.88,10.76,10.76,0,0,1,4.36.89,11.47,11.47,0,0,1,3.53,2.39,11.33,11.33,0,0,1,2.4,3.57,10.82,10.82,0,0,1,.89,4.33,10.7,10.7,0,0,1-.86,4.26,11.4,11.4,0,0,1-2.33,3.5A11.79,11.79,0,0,1,35.8,60,10.58,10.58,0,0,1,31.57,61Z"/><path class="cls-1" d="M68.81,26.27A10.56,10.56,0,0,1,70,22.51a10.84,10.84,0,0,1,2.4-3,11.35,11.35,0,0,1,3.35-2,11.1,11.1,0,0,1,4-.72,10.7,10.7,0,0,1,4.26.85,11.18,11.18,0,0,1,5.87,5.87,10.7,10.7,0,0,1,.85,4.26V40.22a21.58,21.58,0,0,1-1.67,8.36,22,22,0,0,1-4.77,7.11,21.79,21.79,0,0,1-7.1,4.76,21.67,21.67,0,0,1-16.73,0,22.63,22.63,0,0,1-7.17-4.76,21.44,21.44,0,0,1-4.73-7.11,21.74,21.74,0,0,1-1.64-8.36V27.78a10.7,10.7,0,0,1,.85-4.26A11.17,11.17,0,0,1,50.13,20a11.05,11.05,0,0,1,3.5-2.37,10.7,10.7,0,0,1,4.26-.85,10.86,10.86,0,0,1,4,.72,11.41,11.41,0,0,1,3.31,2,10.66,10.66,0,0,1,2.4,3A11.51,11.51,0,0,1,68.81,26.27Z"/><path class="cls-1" d="M123.58,17.87a11.57,11.57,0,0,1,6-1.64,11.42,11.42,0,0,1,4.58.92,11.93,11.93,0,0,1,6.25,6.25,11.37,11.37,0,0,1,.91,4.57V49.12a11.42,11.42,0,0,1-.91,4.58A12,12,0,0,1,134.19,60a11.42,11.42,0,0,1-4.58.91,11.83,11.83,0,0,1-8.4-3.47L100.13,36.31a11.21,11.21,0,0,1-2.56-3.89,12.07,12.07,0,0,1,0-8.9A11.58,11.58,0,0,1,104,17.08a12.07,12.07,0,0,1,8.9,0,11.17,11.17,0,0,1,3.88,2.56l2.59,2.65A11.08,11.08,0,0,1,123.58,17.87Z"/><path class="cls-1" d="M190,30.31,179.68,43.88h3.72a8.32,8.32,0,0,1,3.31.66,8.66,8.66,0,0,1,2.72,1.84,8.34,8.34,0,0,1,1.83,2.74,8.59,8.59,0,0,1,.66,3.35,8.32,8.32,0,0,1-.66,3.31,8.58,8.58,0,0,1-1.83,2.72,8.47,8.47,0,0,1-2.72,1.83,8.32,8.32,0,0,1-3.31.66H169.64a22.43,22.43,0,0,1-8.56-1.67,21.6,21.6,0,0,1-7.23-4.9A21.58,21.58,0,0,1,149,47.2a22.43,22.43,0,0,1-1.67-8.56,22,22,0,0,1,6.56-15.78,22.75,22.75,0,0,1,7.39-4.93,27.33,27.33,0,0,1,5.08-1.39,48.11,48.11,0,0,1,6.47-.72,45.68,45.68,0,0,1,6.82.19,24,24,0,0,1,6.16,1.39,11.54,11.54,0,0,1,4.45,2.87,6.53,6.53,0,0,1,1.7,4.61A8.23,8.23,0,0,1,190,30.31Z"/><path class="cls-1" d="M230.5,39.84V50.07a11.42,11.42,0,0,1-.92,4.58,11.75,11.75,0,0,1-10.89,7.16,11.59,11.59,0,0,1-4.58-.91,12,12,0,0,1-6.25-6.25,11.42,11.42,0,0,1-.91-4.58V39.84a12.19,12.19,0,0,1-4.14-1.23,11.19,11.19,0,0,1-3.34-2.56,11.92,11.92,0,0,1-2.24-3.6,11.18,11.18,0,0,1-.82-4.29,11.83,11.83,0,0,1,7.16-10.89,11.42,11.42,0,0,1,4.58-.91h21.08a11.69,11.69,0,0,1,8.37,3.44,11.79,11.79,0,0,1,2.52,3.75,11.64,11.64,0,0,1,.92,4.61,11.18,11.18,0,0,1-.82,4.29,12.12,12.12,0,0,1-2.24,3.6,11.23,11.23,0,0,1-3.35,2.56A12.13,12.13,0,0,1,230.5,39.84Z"/><path class="cls-1" d="M276.33,39.84V50.07a11.42,11.42,0,0,1-.91,4.58,11.91,11.91,0,0,1-2.53,3.72,11.69,11.69,0,0,1-8.36,3.44A11.56,11.56,0,0,1,260,60.9a12.07,12.07,0,0,1-3.73-2.53,11.88,11.88,0,0,1-2.52-3.72,11.42,11.42,0,0,1-.92-4.58V39.84a12.13,12.13,0,0,1-4.13-1.23,11.23,11.23,0,0,1-3.35-2.56,12.33,12.33,0,0,1-2.24-3.6,11.18,11.18,0,0,1-.82-4.29,11.47,11.47,0,0,1,.92-4.61,11.85,11.85,0,0,1,6.25-6.28,11.37,11.37,0,0,1,4.57-.91h21.09a11.75,11.75,0,0,1,11.81,11.8,11.19,11.19,0,0,1-.83,4.29,11.92,11.92,0,0,1-2.24,3.6,11.19,11.19,0,0,1-3.34,2.56A12.25,12.25,0,0,1,276.33,39.84Z"/><path class="cls-1" d="M334,30.31,323.75,43.88h3.72a8.41,8.41,0,0,1,3.32.66,8.73,8.73,0,0,1,2.71,1.84,8.34,8.34,0,0,1,1.83,2.74,8.59,8.59,0,0,1,.66,3.35,8.32,8.32,0,0,1-.66,3.31,8.57,8.57,0,0,1-4.54,4.55,8.41,8.41,0,0,1-3.32.66H313.71a22.43,22.43,0,0,1-8.56-1.67,21.6,21.6,0,0,1-7.23-4.9A21.58,21.58,0,0,1,293,47.2a22.43,22.43,0,0,1-1.67-8.56,22,22,0,0,1,6.56-15.78,22.75,22.75,0,0,1,7.39-4.93,27.33,27.33,0,0,1,5.08-1.39,48.11,48.11,0,0,1,6.47-.72,45.68,45.68,0,0,1,6.82.19,23.91,23.91,0,0,1,6.16,1.39,11.54,11.54,0,0,1,4.45,2.87,6.53,6.53,0,0,1,1.7,4.61A8.23,8.23,0,0,1,334,30.31Z"/><path class="cls-1" d="M139.78,83.26,129.49,96.83h3.72a8.38,8.38,0,0,1,3.32.67,8.53,8.53,0,0,1,2.71,1.83,8.44,8.44,0,0,1,1.83,2.74,8.64,8.64,0,0,1,.67,3.35,8.42,8.42,0,0,1-.67,3.32,8.59,8.59,0,0,1-4.54,4.54,8.37,8.37,0,0,1-3.32.66H119.45a22.16,22.16,0,0,1-8.55-1.67,21.38,21.38,0,0,1-7.23-4.89,21.6,21.6,0,0,1-4.9-7.23,22.43,22.43,0,0,1-1.67-8.56,21.94,21.94,0,0,1,6.57-15.78,22.73,22.73,0,0,1,7.38-4.92,26.57,26.57,0,0,1,5.08-1.39,48.23,48.23,0,0,1,6.48-.73,47,47,0,0,1,6.81.19,24.33,24.33,0,0,1,6.16,1.39A11.54,11.54,0,0,1,140,73.22a6.49,6.49,0,0,1,1.71,4.61A8.24,8.24,0,0,1,139.78,83.26Z"/><path class="cls-1" d="M163.83,72.78l6.5,6.5a10.26,10.26,0,0,1,1-3.72,10.12,10.12,0,0,1,2.21-3,10.57,10.57,0,0,1,3.19-2,9.87,9.87,0,0,1,3.85-.76,10.16,10.16,0,0,1,7.26,3A10.51,10.51,0,0,1,190,76a9.79,9.79,0,0,1,.82,4v24.11a9.92,9.92,0,0,1-1.64,5.56l-.06.13a9.58,9.58,0,0,1-2.91,2.9,10.08,10.08,0,0,1-5.68,1.71,9.92,9.92,0,0,1-5.55-1.65l-.07-.06A8.2,8.2,0,0,1,174,112c-.28-.23-.54-.48-.79-.73l-6.5-6.5a9.92,9.92,0,0,1-1,3.76,10.65,10.65,0,0,1-2.24,3,11,11,0,0,1-3.19,2,10,10,0,0,1-7.83-.07,10.34,10.34,0,0,1-3.25-2.21A10.23,10.23,0,0,1,147,108.1a9.75,9.75,0,0,1-.82-4V80a9.79,9.79,0,0,1,.82-4,10.34,10.34,0,0,1,2.21-3.25,10.16,10.16,0,0,1,7.26-3,10.49,10.49,0,0,1,7.32,3Z"/><path class="cls-1" d="M228.48,88.37l4.1,2.59a12.29,12.29,0,0,1,5,6.13,13.38,13.38,0,0,1,.92,6.25,10.49,10.49,0,0,1-1.93,5,12.67,12.67,0,0,1-4.17,3.6,18.2,18.2,0,0,1-5.74,2c-1.9.34-3.81.59-5.75.76s-3.87.25-5.81.25c-1.38,0-3-.07-4.82-.22a33.42,33.42,0,0,1-5.4-.88,19,19,0,0,1-4.9-2,8.51,8.51,0,0,1-3.37-3.44,7.37,7.37,0,0,1-.82-3.47,9.53,9.53,0,0,1,.69-3.6,8.74,8.74,0,0,1,1.93-2.94,9.33,9.33,0,0,1,2.84-2,8.31,8.31,0,0,1,3.5-.73H206l-4.1-2.65a11.59,11.59,0,0,1-5-6.12,12.67,12.67,0,0,1-.91-6.1,10.89,10.89,0,0,1,1.86-5,12.14,12.14,0,0,1,4-3.63,18.58,18.58,0,0,1,5.68-2.09c1.81-.33,3.64-.59,5.5-.76s3.72-.25,5.61-.25c1.35,0,2.89.08,4.61.22a30.5,30.5,0,0,1,5.15.89,19,19,0,0,1,4.7,1.89,8.37,8.37,0,0,1,3.28,3.32,8,8,0,0,1,.89,3.66,8.83,8.83,0,0,1-.7,3.53,9.6,9.6,0,0,1-1.89,2.91,9,9,0,0,1-6.25,2.77Z"/><path class="cls-1" d="M260.65,112.3A11.94,11.94,0,0,1,250,113a12,12,0,0,1-6.25-6.25,11.42,11.42,0,0,1-.91-4.58V81.05a11.42,11.42,0,0,1,.91-4.58,11.74,11.74,0,0,1,2.53-3.72A11.91,11.91,0,0,1,250,70.22a11.42,11.42,0,0,1,4.58-.91A11.78,11.78,0,0,1,263,72.78L284.1,93.87a11.17,11.17,0,0,1,2.56,3.88,12.07,12.07,0,0,1,0,8.9,11.58,11.58,0,0,1-6.44,6.44,12.07,12.07,0,0,1-8.9,0,11.21,11.21,0,0,1-3.89-2.56l-2.59-2.65A10.87,10.87,0,0,1,260.65,112.3Z"/><path class="cls-1" d="M313,80.92h1v-.5a10.34,10.34,0,0,1,.86-4.17,11,11,0,0,1,2.3-3.41,11.2,11.2,0,0,1,3.41-2.3,10.27,10.27,0,0,1,4.17-.85,10,10,0,0,1,4.13.85,11.18,11.18,0,0,1,3.38,2.3,10.85,10.85,0,0,1,2.3,3.41,10.34,10.34,0,0,1,.86,4.17v22.41a10.31,10.31,0,0,1-.86,4.17,10.85,10.85,0,0,1-2.3,3.41,10.58,10.58,0,0,1-3.38,2.27,10.36,10.36,0,0,1-4.13.82,10.68,10.68,0,0,1-7.58-3.09,11,11,0,0,1-2.3-3.41,10.31,10.31,0,0,1-.86-4.17v-.5h-1v.5a10.3,10.3,0,0,1-.85,4.17,11,11,0,0,1-2.3,3.41,10.68,10.68,0,0,1-7.58,3.09,10.36,10.36,0,0,1-4.13-.82,10.58,10.58,0,0,1-3.38-2.27,11,11,0,0,1-2.31-3.41,10.47,10.47,0,0,1-.85-4.17V80.42a10.51,10.51,0,0,1,.85-4.17,11,11,0,0,1,2.31-3.41,11.18,11.18,0,0,1,3.38-2.3,10,10,0,0,1,4.13-.85,10.33,10.33,0,0,1,4.17.85,11.2,11.2,0,0,1,3.41,2.3,11,11,0,0,1,2.3,3.41,10.33,10.33,0,0,1,.85,4.17Z"/></g></g></svg>