<svg xmlns="http://www.w3.org/2000/svg" viewBox="0 0 146.46 146.46"><defs><style>.cls-1{fill:#ff8500;}.cls-2{fill:#630100;}.cls-3{fill:#fff;}</style></defs><g id="Layer_2" data-name="Layer 2"><g id="Layer_1-2" data-name="Layer 1"><rect class="cls-1" width="146.46" height="146.46" rx="73.23"/><path class="cls-2" d="M88.76,114.14H27.17V58.22a28.44,28.44,0,0,1,56.86-1h4.73a28.44,28.44,0,0,1,0,56.88Zm-51.59-10H88.76a18.44,18.44,0,0,0,0-36.88H74.05v-9a18.44,18.44,0,0,0-36.88,0Z"/><path class="cls-3" d="M67.8,60.9H50.21a6.28,6.28,0,0,1-2.53-.51,6.41,6.41,0,0,1-3.47-3.47,6.28,6.28,0,0,1-.51-2.53V33.33a6.32,6.32,0,0,1,.51-2.53,6.39,6.39,0,0,1,1.39-2.07,6.57,6.57,0,0,1,2.08-1.4,6.28,6.28,0,0,1,2.53-.51H67.8a8.47,8.47,0,0,1,3.23.72,8.84,8.84,0,0,1,2.63,1.84,8.57,8.57,0,0,1,1.78,2.7,8.37,8.37,0,0,1,.65,3.27,8.09,8.09,0,0,1-.67,3.28,8.57,8.57,0,0,1-1.84,2.7,8.78,8.78,0,0,1-2.69,1.83,8.23,8.23,0,0,1-3.33.68,8.22,8.22,0,0,1,3.33.67,8.78,8.78,0,0,1,2.69,1.83,8.48,8.48,0,0,1,1.84,2.73,8.46,8.46,0,0,1,0,6.55,8.71,8.71,0,0,1-1.78,2.68A8.87,8.87,0,0,1,71,60.15,8,8,0,0,1,67.8,60.9Z"/><path class="cls-3" d="M95.23,31.35l2-2a8.52,8.52,0,0,1,3-1.95,9.19,9.19,0,0,1,6.79,0,8.52,8.52,0,0,1,3,1.95,8.86,8.86,0,0,1,1.95,3,9.22,9.22,0,0,1,0,6.8,8.67,8.67,0,0,1-1.95,3l-16.1,16.1a9.1,9.1,0,0,1-6.41,2.65,8.68,8.68,0,0,1-3.5-.7,9,9,0,0,1-2.84-1.92,9.15,9.15,0,0,1-1.93-2.85,8.77,8.77,0,0,1-.7-3.49V35.69a8.77,8.77,0,0,1,.7-3.49,9.07,9.07,0,0,1,4.77-4.77,8.68,8.68,0,0,1,3.5-.7A8.85,8.85,0,0,1,92,28,8.45,8.45,0,0,1,95.23,31.35Z"/><path class="cls-3" d="M69.73,85.18v7.76a8.86,8.86,0,0,1-.7,3.5,9.22,9.22,0,0,1-1.93,2.84,9,9,0,0,1-6.39,2.63,8.81,8.81,0,0,1-3.49-.7,9.16,9.16,0,0,1-4.77-4.77,8.68,8.68,0,0,1-.7-3.5V85.18a9.19,9.19,0,0,1-3.16-.94A8.74,8.74,0,0,1,46,82.29a9,9,0,0,1-1.71-2.75,8.59,8.59,0,0,1-.63-3.28A9,9,0,0,1,49.17,68a8.65,8.65,0,0,1,3.5-.7H68.76a8.78,8.78,0,0,1,3.52.7,9,9,0,0,1,2.87,1.93,8.92,8.92,0,0,1,2.63,6.38,8.59,8.59,0,0,1-.63,3.28,9.36,9.36,0,0,1-1.71,2.75,8.74,8.74,0,0,1-2.55,1.95A9.32,9.32,0,0,1,69.73,85.18Z"/><path class="cls-3" d="M111.9,77.9l-7.85,10.36h2.84a6.32,6.32,0,0,1,2.53.51,6.42,6.42,0,0,1,2.07,1.4,6.34,6.34,0,0,1,1.4,2.1,6.45,6.45,0,0,1,.51,2.55,6.32,6.32,0,0,1-.51,2.53,6.59,6.59,0,0,1-3.47,3.47,6.32,6.32,0,0,1-2.53.51H96.38a17,17,0,0,1-6.53-1.28,16.42,16.42,0,0,1-5.52-3.74A16.25,16.25,0,0,1,80.6,90.8a17.09,17.09,0,0,1-1.28-6.54,16.86,16.86,0,0,1,5-12.05A17.53,17.53,0,0,1,90,68.45a21,21,0,0,1,3.88-1.06A37,37,0,0,1,104,67,18.74,18.74,0,0,1,108.7,68a9,9,0,0,1,3.4,2.2,5,5,0,0,1,1.3,3.52A6.24,6.24,0,0,1,111.9,77.9Z"/></g></g></svg>