<svg xmlns="http://www.w3.org/2000/svg" viewBox="0 0 332.5 143.38"><defs><style>.cls-1{fill:#ff8500;}</style></defs><g id="Layer_2" data-name="Layer 2"><g id="Layer_1-2" data-name="Layer 1"><path class="cls-1" d="M332.5,71.64,317.15,56.29l0,.05L263.94,3.18a10.85,10.85,0,0,0-15.35,0h0a10.85,10.85,0,0,0,0,15.35l42.3,42.31h-280A10.85,10.85,0,0,0,0,71.69H0A10.86,10.86,0,0,0,10.85,82.55h280l-42.3,42.3a10.85,10.85,0,0,0,0,15.35h0a10.85,10.85,0,0,0,15.35,0L317.1,87l0,0L332.5,71.74l-.05,0Z"/></g></g></svg>