<svg xmlns="http://www.w3.org/2000/svg" viewBox="0 0 335.99 99.18"><defs><style>.cls-1{fill:#630100;}</style></defs><g id="Layer_2" data-name="Layer 2"><g id="Layer_1-2" data-name="Layer 1"><path class="cls-1" d="M31.57,45.22h-23a8.32,8.32,0,0,1-3.31-.66A8.54,8.54,0,0,1,.66,40,8.32,8.32,0,0,1,0,36.7V9.11A8.41,8.41,0,0,1,.66,5.79,8.57,8.57,0,0,1,5.21,1.25,8.32,8.32,0,0,1,8.52.59H31.57a10.89,10.89,0,0,1,4.23.94,11.18,11.18,0,0,1,5.77,5.94,10.88,10.88,0,0,1,.86,4.29,10.53,10.53,0,0,1-.89,4.29A11.37,11.37,0,0,1,35.61,22a10.75,10.75,0,0,1-4.36.88,10.76,10.76,0,0,1,4.36.89,11.47,11.47,0,0,1,3.53,2.39,11.33,11.33,0,0,1,2.4,3.57,10.82,10.82,0,0,1,.89,4.33,10.7,10.7,0,0,1-.86,4.26,11.4,11.4,0,0,1-2.33,3.5,11.79,11.79,0,0,1-3.44,2.43A10.58,10.58,0,0,1,31.57,45.22Z"/><path class="cls-1" d="M68.81,10.5A10.56,10.56,0,0,1,70,6.74a10.84,10.84,0,0,1,2.4-3,11.35,11.35,0,0,1,3.35-2,11.1,11.1,0,0,1,4-.72A10.7,10.7,0,0,1,84,1.88a11.18,11.18,0,0,1,5.87,5.87A10.7,10.7,0,0,1,90.72,12V24.45a21.67,21.67,0,0,1-1.67,8.37A22.14,22.14,0,0,1,77.18,44.68a21.67,21.67,0,0,1-16.73,0,22.63,22.63,0,0,1-7.17-4.76,21.39,21.39,0,0,1-4.73-7.1,21.83,21.83,0,0,1-1.64-8.37V12a10.7,10.7,0,0,1,.85-4.26,11.17,11.17,0,0,1,2.37-3.5,11.05,11.05,0,0,1,3.5-2.37A10.7,10.7,0,0,1,57.89,1a10.86,10.86,0,0,1,4,.72,11.41,11.41,0,0,1,3.31,2,10.66,10.66,0,0,1,2.4,3A11.51,11.51,0,0,1,68.81,10.5Z"/><path class="cls-1" d="M123.58,2.1a11.57,11.57,0,0,1,6-1.64,11.42,11.42,0,0,1,4.58.92,11.93,11.93,0,0,1,6.25,6.25,11.37,11.37,0,0,1,.91,4.57V33.35a11.42,11.42,0,0,1-.91,4.58,12,12,0,0,1-6.25,6.25,11.42,11.42,0,0,1-4.58.91,11.83,11.83,0,0,1-8.4-3.47L100.13,20.54a11.26,11.26,0,0,1-2.56-3.88,12.1,12.1,0,0,1,0-8.91A11.58,11.58,0,0,1,104,1.31a12.07,12.07,0,0,1,8.9,0,11.31,11.31,0,0,1,3.88,2.56l2.59,2.65A11.08,11.08,0,0,1,123.58,2.1Z"/><path class="cls-1" d="M190,14.54,179.68,28.11h3.72a8.32,8.32,0,0,1,3.31.66,8.66,8.66,0,0,1,2.72,1.84,8.34,8.34,0,0,1,1.83,2.74,8.59,8.59,0,0,1,.66,3.35,8.32,8.32,0,0,1-.66,3.31,8.58,8.58,0,0,1-1.83,2.72,8.47,8.47,0,0,1-2.72,1.83,8.32,8.32,0,0,1-3.31.66H169.64a22.43,22.43,0,0,1-8.56-1.67,21.72,21.72,0,0,1-7.23-4.89A21.72,21.72,0,0,1,149,31.43a22.43,22.43,0,0,1-1.67-8.56A22.12,22.12,0,0,1,149,14.35a22.47,22.47,0,0,1,4.89-7.26,22.75,22.75,0,0,1,7.39-4.93A26.63,26.63,0,0,1,166.32.78a46.51,46.51,0,0,1,6.47-.73,45.68,45.68,0,0,1,6.82.19,24,24,0,0,1,6.16,1.39,11.54,11.54,0,0,1,4.45,2.87,6.53,6.53,0,0,1,1.7,4.61A8.23,8.23,0,0,1,190,14.54Z"/><path class="cls-1" d="M230.5,24.07V34.3a11.42,11.42,0,0,1-.92,4.58,11.85,11.85,0,0,1-6.28,6.25,11.63,11.63,0,0,1-4.61.91,11.42,11.42,0,0,1-4.58-.91,12,12,0,0,1-6.25-6.25A11.42,11.42,0,0,1,207,34.3V24.07a12.19,12.19,0,0,1-4.14-1.23,11.19,11.19,0,0,1-3.34-2.56,11.92,11.92,0,0,1-2.24-3.6,11.18,11.18,0,0,1-.82-4.29A11.83,11.83,0,0,1,203.57,1.5a11.42,11.42,0,0,1,4.58-.91h21.08A11.69,11.69,0,0,1,237.6,4a11.79,11.79,0,0,1,2.52,3.75,11.64,11.64,0,0,1,.92,4.61,11.18,11.18,0,0,1-.82,4.29,12.12,12.12,0,0,1-2.24,3.6,11.23,11.23,0,0,1-3.35,2.56A12.13,12.13,0,0,1,230.5,24.07Z"/><path class="cls-1" d="M276.33,24.07V34.3a11.42,11.42,0,0,1-.91,4.58,11.91,11.91,0,0,1-2.53,3.72,11.75,11.75,0,0,1-3.76,2.53,11.58,11.58,0,0,1-4.6.91,11.38,11.38,0,0,1-4.58-.91,12.07,12.07,0,0,1-3.73-2.53,11.88,11.88,0,0,1-2.52-3.72,11.42,11.42,0,0,1-.92-4.58V24.07a12.13,12.13,0,0,1-4.13-1.23,11.23,11.23,0,0,1-3.35-2.56,12.33,12.33,0,0,1-2.24-3.6,11.18,11.18,0,0,1-.82-4.29,11.47,11.47,0,0,1,.92-4.61,11.85,11.85,0,0,1,6.25-6.28A11.37,11.37,0,0,1,254,.59h21.09a11.75,11.75,0,0,1,11.81,11.8,11.19,11.19,0,0,1-.83,4.29,11.92,11.92,0,0,1-2.24,3.6,11.19,11.19,0,0,1-3.34,2.56A12.25,12.25,0,0,1,276.33,24.07Z"/><path class="cls-1" d="M334,14.54,323.75,28.11h3.72a8.41,8.41,0,0,1,3.32.66,8.73,8.73,0,0,1,2.71,1.84,8.34,8.34,0,0,1,1.83,2.74A8.59,8.59,0,0,1,336,36.7a8.32,8.32,0,0,1-.66,3.31,8.57,8.57,0,0,1-4.54,4.55,8.41,8.41,0,0,1-3.32.66H313.71a22.43,22.43,0,0,1-8.56-1.67,21.72,21.72,0,0,1-7.23-4.89A21.72,21.72,0,0,1,293,31.43a22.43,22.43,0,0,1-1.67-8.56A22.12,22.12,0,0,1,293,14.35a22.47,22.47,0,0,1,4.89-7.26,22.75,22.75,0,0,1,7.39-4.93A26.63,26.63,0,0,1,310.39.78a46.51,46.51,0,0,1,6.47-.73,45.68,45.68,0,0,1,6.82.19,23.91,23.91,0,0,1,6.16,1.39,11.54,11.54,0,0,1,4.45,2.87A6.53,6.53,0,0,1,336,9.11,8.23,8.23,0,0,1,334,14.54Z"/><path class="cls-1" d="M139.78,67.49,129.49,81.06h3.72a8.38,8.38,0,0,1,3.32.67,8.53,8.53,0,0,1,2.71,1.83,8.44,8.44,0,0,1,1.83,2.74,8.64,8.64,0,0,1,.67,3.35,8.42,8.42,0,0,1-.67,3.32,8.59,8.59,0,0,1-4.54,4.54,8.37,8.37,0,0,1-3.32.66H119.45a22.16,22.16,0,0,1-8.55-1.67,21.38,21.38,0,0,1-7.23-4.89,21.6,21.6,0,0,1-4.9-7.23A22.19,22.19,0,0,1,103.67,60a22.73,22.73,0,0,1,7.38-4.92,26.57,26.57,0,0,1,5.08-1.39,48.23,48.23,0,0,1,6.48-.73,47,47,0,0,1,6.81.19,24.33,24.33,0,0,1,6.16,1.39A11.66,11.66,0,0,1,140,57.45a6.49,6.49,0,0,1,1.71,4.61A8.24,8.24,0,0,1,139.78,67.49Z"/><path class="cls-1" d="M163.83,57l6.5,6.5a10.26,10.26,0,0,1,1-3.72,10.12,10.12,0,0,1,2.21-3,10.57,10.57,0,0,1,3.19-2,9.87,9.87,0,0,1,3.85-.76,10.16,10.16,0,0,1,7.26,3A10.51,10.51,0,0,1,190,60.2a9.79,9.79,0,0,1,.82,4V88.33a9.91,9.91,0,0,1-1.64,5.55l-.06.13a9.58,9.58,0,0,1-2.91,2.9,10.08,10.08,0,0,1-5.68,1.71A9.92,9.92,0,0,1,175,97l-.07-.06a8.2,8.2,0,0,1-.91-.66c-.28-.23-.54-.48-.79-.73l-6.5-6.5a9.92,9.92,0,0,1-1,3.76,10.65,10.65,0,0,1-2.24,3,11,11,0,0,1-3.19,2,10,10,0,0,1-7.83-.07,10.34,10.34,0,0,1-3.25-2.21A10.23,10.23,0,0,1,147,92.33a9.74,9.74,0,0,1-.82-4V64.21a9.79,9.79,0,0,1,.82-4A10.34,10.34,0,0,1,149.25,57a10.16,10.16,0,0,1,7.26-3,10.49,10.49,0,0,1,7.32,3Z"/><path class="cls-1" d="M228.48,72.6l4.1,2.59a12.29,12.29,0,0,1,5,6.13,13.38,13.38,0,0,1,.92,6.25,10.49,10.49,0,0,1-1.93,5,12.67,12.67,0,0,1-4.17,3.6,18.2,18.2,0,0,1-5.74,2c-1.9.34-3.81.59-5.75.76s-3.87.25-5.81.25c-1.38,0-3-.07-4.82-.22a32.35,32.35,0,0,1-5.4-.88,18.68,18.68,0,0,1-4.9-2,8.51,8.51,0,0,1-3.37-3.44,7.37,7.37,0,0,1-.82-3.47,9.53,9.53,0,0,1,.69-3.6,8.84,8.84,0,0,1,1.93-2.94,9.33,9.33,0,0,1,2.84-2,8.31,8.31,0,0,1,3.5-.73H206l-4.1-2.65a11.59,11.59,0,0,1-5-6.12,12.67,12.67,0,0,1-.91-6.1,10.89,10.89,0,0,1,1.86-5,12.14,12.14,0,0,1,4-3.63,18.58,18.58,0,0,1,5.68-2.09c1.81-.33,3.64-.59,5.5-.76s3.72-.25,5.61-.25c1.35,0,2.89.08,4.61.22a31.54,31.54,0,0,1,5.15.89,19,19,0,0,1,4.7,1.89,8.37,8.37,0,0,1,3.28,3.32,8,8,0,0,1,.89,3.66,8.83,8.83,0,0,1-.7,3.53,9.48,9.48,0,0,1-1.89,2.91,8.92,8.92,0,0,1-6.25,2.77Z"/><path class="cls-1" d="M260.65,96.53a11.94,11.94,0,0,1-10.61.73A12,12,0,0,1,243.79,91a11.42,11.42,0,0,1-.91-4.58V65.28a11.45,11.45,0,0,1,.91-4.58A11.74,11.74,0,0,1,246.32,57,11.91,11.91,0,0,1,250,54.45a11.42,11.42,0,0,1,4.58-.91A11.78,11.78,0,0,1,263,57L284.1,78.1A11.17,11.17,0,0,1,286.66,82a12.07,12.07,0,0,1,0,8.9,11.58,11.58,0,0,1-6.44,6.44,12.07,12.07,0,0,1-8.9,0,11.21,11.21,0,0,1-3.89-2.56l-2.59-2.65A10.87,10.87,0,0,1,260.65,96.53Z"/><path class="cls-1" d="M313,65.16h1v-.51a10.34,10.34,0,0,1,.86-4.17,11,11,0,0,1,2.3-3.41,11.2,11.2,0,0,1,3.41-2.3,10.27,10.27,0,0,1,4.17-.85,10,10,0,0,1,4.13.85,11.18,11.18,0,0,1,3.38,2.3,10.85,10.85,0,0,1,2.3,3.41,10.34,10.34,0,0,1,.86,4.17V87.06a10.31,10.31,0,0,1-.86,4.17,10.85,10.85,0,0,1-2.3,3.41,10.58,10.58,0,0,1-3.38,2.27,10.36,10.36,0,0,1-4.13.82,10.68,10.68,0,0,1-7.58-3.09,11,11,0,0,1-2.3-3.41,10.31,10.31,0,0,1-.86-4.17v-.5h-1v.5a10.3,10.3,0,0,1-.85,4.17,11,11,0,0,1-2.3,3.41,10.68,10.68,0,0,1-7.58,3.09,10.36,10.36,0,0,1-4.13-.82,10.58,10.58,0,0,1-3.38-2.27,11,11,0,0,1-2.31-3.41,10.47,10.47,0,0,1-.85-4.17V64.65a10.51,10.51,0,0,1,.85-4.17,11,11,0,0,1,2.31-3.41,11.18,11.18,0,0,1,3.38-2.3,10,10,0,0,1,4.13-.85,10.33,10.33,0,0,1,4.17.85,11.2,11.2,0,0,1,3.41,2.3,11,11,0,0,1,2.3,3.41,10.33,10.33,0,0,1,.85,4.17Z"/></g></g></svg>