<svg xmlns="http://www.w3.org/2000/svg" viewBox="0 0 431.28 431.28"><defs><style>.cls-1{fill:#ff8500;}.cls-2{fill:#fff;}.cls-3{fill:#630100;}</style></defs><g id="Layer_2" data-name="Layer 2"><g id="Layer_1-2" data-name="Layer 1"><circle class="cls-1" cx="215.64" cy="215.64" r="215.64"/><path class="cls-2" d="M201.52,94.54q49.89.52,85.59,35.42c7.09,7,7.37,17.52.77,24.46a17,17,0,0,1-24.62.41,88.8,88.8,0,0,0-42.51-23.67c-47.66-11.2-96.57,21.37-104.44,69.6-7,43.05,17.05,83.79,58.6,97,32.13,10.2,61.2,3.26,86.24-19.51,3.17-2.88,6.26-5.68,10.62-6.53a17.25,17.25,0,0,1,15.63,29.22,120.89,120.89,0,0,1-42.3,27.68C176.43,355.28,99,313.76,83.38,241.86c-12.09-55.58,15.07-111.29,66.24-135.7A119.12,119.12,0,0,1,201.52,94.54Z"/><path class="cls-3" d="M291,232.85H260.5c-19.68,0-39.36.08-59,0-7.2-.05-12.57-3.55-15.57-10.12s-2-12.67,2.47-18.16c3.57-4.38,8.39-6.22,14-6.21q42.86,0,85.73,0h3.65c-1.67-1.67-2.9-2.9-4.12-4.14-7-7.13-7.11-17.85-.33-24.66s17.49-6.86,24.65.23q16.77,16.6,33.36,33.36c7.26,7.32,7.22,17.69-.08,25q-16.51,16.65-33.17,33.16c-7.26,7.21-18,7.26-24.84.26s-6.53-17.52.5-24.66c1.18-1.19,2.42-2.32,3.63-3.47Z"/></g></g></svg>