<svg xmlns="http://www.w3.org/2000/svg" viewBox="0 0 431.28 431.28"><defs><style>.cls-1{fill:#ff8500;}.cls-2{fill:#fff;}.cls-3{fill:#630100;}</style></defs><g id="Layer_2" data-name="Layer 2"><g id="Layer_1-2" data-name="Layer 1"><circle class="cls-1" cx="215.64" cy="215.64" r="215.64"/><path class="cls-2" d="M144,61.61H292c6.71,2,10.61,6.89,14,12.81,12.63,22.28,25.54,44.4,38.42,66.53a18.25,18.25,0,0,1,2.57,9.58q-.08,92.37,0,184.75c0,14-8.45,22.46-22.51,22.46H111.65c-14.24,0-22.62-8.39-22.62-22.65q0-91.65,0-183.3a22.22,22.22,0,0,1,3.1-11.53c12.65-21.83,25.35-43.62,37.75-65.58C133.24,68.67,137.15,63.7,144,61.61Zm74,90.78q-54.06,0-108.13-.06c-2.67,0-3.53.48-3.52,3.38q.15,89.63.07,179.25c0,4.81.64,5.43,5.54,5.43h212.2c4.83,0,5.48-.65,5.48-5.5q0-89.62.06-179.24c0-2.61-.62-3.33-3.29-3.33Q272.18,152.47,218,152.39ZM162.27,135c14.83,0,29.66-.05,44.49.06,2.31,0,2.9-.69,2.89-2.92q-.14-25.29,0-50.56c0-2.22-.68-2.7-2.78-2.69q-28.45.12-56.91,0a3.58,3.58,0,0,0-3.66,2q-14.75,25.8-29.66,51.52c-1.19,2-1.23,2.64,1.43,2.62C132.8,135,147.53,135,162.27,135Zm158.3,0a7.93,7.93,0,0,0-.41-1.28q-15.39-26.63-30.75-53.26c-.86-1.51-2-1.53-3.33-1.53-18.69,0-37.39,0-56.08,0-2.36,0-3.08.55-3.06,3q.17,25,0,50c0,2.58.71,3.19,3.23,3.18,29.19-.09,58.39-.06,87.58-.06Z"/><path class="cls-3" d="M206.78,286.09a12.07,12.07,0,0,1-9.06-3.77c-10.14-10.1-20.33-20.16-30.35-30.39a12.55,12.55,0,0,1-.24-17.81c5-5.08,12.62-5.18,18.09.06,6.19,5.92,12.28,11.95,18.14,18.18,2.52,2.68,4,3,6.77.15,17-17.32,34.28-34.41,51.43-51.59,2.73-2.73,5.58-5.09,9.72-5.28,5.47-.25,9.62,2,12.1,6.76,2.38,4.62,1.89,9.23-1.22,13.47a22.19,22.19,0,0,1-2.25,2.5Q248.5,249.8,217.09,281.2C214.21,284.08,211.06,286.24,206.78,286.09Z"/></g></g></svg>